<svg xmlns="http://www.w3.org/2000/svg" width="104" height="25" viewBox="0 0 104 25" fill="none"><path fill-rule="evenodd" clip-rule="evenodd" d="M19.0267 24.5326C21.2282 25.2444 23.5828 24.0098 24.2707 21.7829L29.3132 5.46297C30.4146 1.89838 26.7036 -1.2356 23.4199 0.486092L2.24365 11.5895C-1.03995 13.3112 -0.631189 18.1767 2.89278 19.316L19.0267 24.5326ZM22.5752 12.4581C22.6618 12.6266 22.646 12.8872 22.4437 13.2097C22.2456 13.5254 21.8942 13.8507 21.4294 14.0943C20.9649 14.3379 20.499 14.4411 20.1292 14.4232C19.7513 14.405 19.5308 14.2682 19.4441 14.0998C19.3574 13.9314 19.3731 13.6708 19.5756 13.3483C19.7737 13.0326 20.1251 12.7073 20.5897 12.4636C21.0542 12.22 21.5202 12.1169 21.8901 12.1347C22.268 12.153 22.4884 12.2897 22.5752 12.4581ZM21.6856 14.5912C22.2214 14.3102 22.6532 13.9224 22.9127 13.5093C23.1677 13.103 23.2834 12.619 23.0675 12.1999C22.8516 11.7808 22.3926 11.5983 21.9164 11.5754C21.4325 11.552 20.8697 11.6857 20.3338 11.9667C19.7978 12.2477 19.366 12.6355 19.1067 13.0487C18.8517 13.455 18.7358 13.9389 18.9516 14.358C19.1675 14.7771 19.6266 14.9596 20.1027 14.9826C20.5867 15.0059 21.1494 14.8722 21.6856 14.5912ZM17.2121 15.5856C17.3481 15.5144 17.4011 15.3453 17.3304 15.2081C17.2597 15.0709 17.0922 15.0174 16.9562 15.0887L16.6939 15.2263C15.771 15.7102 15.088 16.0682 14.5793 16.3046C14.3253 16.4226 14.1217 16.507 13.9582 16.5609C13.7916 16.6159 13.6849 16.6329 13.6189 16.6313C13.2969 16.6234 13.2087 16.4904 13.1955 16.4014C13.1957 16.4025 13.1957 16.4025 13.1958 16.4011C13.1965 16.3939 13.2007 16.3497 13.2517 16.2478C13.308 16.135 13.4032 15.9871 13.5446 15.7945C13.8273 15.4097 14.2632 14.8885 14.8564 14.1794L16.786 11.8729L16.7938 11.8636C17.3778 11.1656 17.8251 10.6309 18.1196 10.23C18.2673 10.0289 18.3846 9.85091 18.4623 9.69543C18.5357 9.54857 18.597 9.37754 18.5718 9.207C18.5015 8.73189 18.0676 8.511 17.6129 8.49994C17.4542 8.49607 17.2775 8.53527 17.0877 8.59785C16.8948 8.6615 16.6691 8.756 16.4069 8.87783C15.8847 9.12047 15.19 9.48473 14.2764 9.96372L14.2686 9.96784L13.7043 10.2637C13.5683 10.335 13.5153 10.5041 13.586 10.6413C13.6567 10.7785 13.8242 10.8319 13.9602 10.7606L14.5245 10.4648C15.4474 9.98089 16.1304 9.62285 16.6391 9.38647C16.8931 9.26843 17.0967 9.18406 17.2602 9.13016C17.4268 9.0752 17.5335 9.05818 17.5995 9.05977C17.9215 9.06761 18.0097 9.20067 18.0229 9.28971C18.0227 9.2885 18.0227 9.28853 18.0226 9.2899C18.0219 9.29713 18.0176 9.3414 17.9667 9.44329C17.9104 9.55604 17.8152 9.70391 17.6737 9.89655C17.391 10.2814 16.9552 10.8025 16.362 11.5117L14.4323 13.8182L14.4246 13.8274C13.8406 14.5255 13.3932 15.0602 13.0988 15.461C12.951 15.6621 12.8338 15.8402 12.7561 15.9957C12.6827 16.1425 12.6214 16.3135 12.6466 16.4841C12.7169 16.9592 13.1508 17.1801 13.6055 17.1911C13.7641 17.195 13.9409 17.1558 14.1306 17.0932C14.3236 17.0296 14.5493 16.9351 14.8115 16.8133C15.3337 16.5706 16.0284 16.2063 16.942 15.7273L16.9498 15.7232L17.2121 15.5856ZM11.5636 11.9269C11.6504 12.0953 11.6346 12.3559 11.4322 12.6784C11.2341 12.9941 10.8827 13.3194 10.4181 13.563C9.95341 13.8067 9.4876 13.9098 9.11769 13.892C8.73979 13.8737 8.51937 13.7369 8.43263 13.5686C8.34591 13.4001 8.36167 13.1395 8.56408 12.817C8.76221 12.5013 9.11358 12.176 9.57823 11.9324C10.0429 11.6887 10.5087 11.5856 10.8786 11.6035C11.2565 11.6217 11.4769 11.7585 11.5636 11.9269ZM10.674 14.06C11.2099 13.7789 11.6418 13.3912 11.9011 12.978C12.1561 12.5717 12.2719 12.0877 12.0561 11.6686C11.8403 11.2495 11.3812 11.0671 10.9051 11.0441C10.421 11.0207 9.85828 11.1544 9.32232 11.4355C8.78636 11.7165 8.35451 12.1042 8.09521 12.5174C7.84019 12.9237 7.72431 13.4076 7.94017 13.8268C8.15601 14.2459 8.61508 14.4284 9.09119 14.4513C9.57532 14.4747 10.138 14.341 10.674 14.06Z" fill="white"></path><path d="M31.052 11.778C31.2487 11.2672 31.5229 10.8842 31.8745 10.6288C32.2399 10.3593 32.5846 10.1962 32.9079 10.1394C33.2453 10.0685 33.5195 10.1039 33.7304 10.2458C33.9554 10.3877 34.0326 10.6076 33.9624 10.9055C34.2296 10.6359 34.6162 10.3877 35.1223 10.1607C35.6285 9.93369 36.0292 9.77765 36.3245 9.69253C36.6197 9.60741 36.8728 9.56485 37.0837 9.56485C37.5477 9.59321 37.6811 9.84857 37.4844 10.3309C37.7233 10.3735 37.8993 10.5295 38.0116 10.7991C38.124 11.0686 38.1382 11.3666 38.0538 11.6928C37.9695 12.0191 37.7797 12.3383 37.4844 12.6504C37.1891 12.9626 36.7884 13.1754 36.2823 13.2888C35.7903 13.4023 35.3754 13.6648 35.038 14.0762C34.7147 14.4734 34.4263 14.97 34.1733 15.5658C33.7515 16.5731 33.3719 17.9988 33.0344 19.8431C32.922 20.5099 32.465 21.0702 31.6636 21.5242C30.9043 21.964 30.2084 22.0917 29.5757 21.9072C28.8586 21.7086 28.5422 21.1766 28.6266 20.3112C28.6546 19.7012 28.8375 18.8926 29.1749 17.8853C29.5124 16.8639 29.7724 16.0978 29.9553 15.5871C30.1381 15.0622 30.2647 14.665 30.3349 14.3954L31.052 11.778ZM44.6014 17.4384C44.3342 17.5661 44.0742 17.6654 43.8211 17.7364C43.568 17.8073 43.2728 17.8782 42.9353 17.9492C42.0496 18.1336 41.4099 18.24 41.0161 18.2684C41.0583 18.4102 41.2692 18.5805 41.6488 18.7791C41.9019 18.8216 42.1761 18.7862 42.4714 18.6727C42.7808 18.545 43.0971 18.4315 43.4204 18.3322C43.7578 18.2187 44.0811 18.1549 44.3905 18.1407C44.7138 18.1265 45.0163 18.2471 45.2974 18.5024C45.4098 18.7578 45.5014 18.9068 45.5716 18.9493C45.6418 18.9919 45.7051 19.0132 45.7614 19.0132C45.8177 19.0132 45.881 19.0344 45.9512 19.077C46.0214 19.1196 46.1199 19.2827 46.2465 19.5664C46.3872 19.8502 46.3519 20.1197 46.141 20.3751C45.9443 20.6304 45.6349 20.8503 45.2131 21.0348C44.7913 21.2192 44.2992 21.3682 43.7368 21.4816C43.1743 21.5951 42.612 21.6732 42.0496 21.7157C40.7842 21.815 39.821 21.7157 39.1602 21.4178C38.2042 21.0915 37.5854 20.446 37.3043 19.4813C36.9388 18.2045 37.1425 16.7149 37.9159 15.0125C38.2675 14.2181 38.8228 13.3669 39.582 12.4589C40.2428 11.6645 40.9809 11.0899 41.7965 10.7352C42.7386 10.3238 43.7226 10.1323 44.7491 10.1607C45.8458 10.1891 46.605 10.6714 47.0268 11.6077C47.2377 12.1043 47.2799 12.7994 47.1533 13.6932C46.9283 14.8565 46.633 15.6793 46.2676 16.1616C45.9021 16.6298 45.3465 17.0554 44.6014 17.4384ZM43.3782 14.0762C42.6331 13.9202 42.0496 14.3458 41.6278 15.353C41.5012 15.6226 41.4027 15.9063 41.3325 16.2042C41.8106 16.261 42.3168 15.9914 42.851 15.3956C43.0477 15.1544 43.1954 14.9132 43.2939 14.672C43.3924 14.4167 43.4204 14.2181 43.3782 14.0762ZM57.0745 11.4588L57.1589 11.48C57.1869 11.48 57.2011 11.4871 57.2011 11.5013C57.5665 11.3595 57.869 11.4659 58.1079 11.8205C58.2625 12.0617 58.3821 12.4306 58.4665 12.9271C58.4945 13.608 58.4243 14.5515 58.2556 15.7573C57.9323 18.1974 57.7563 19.6516 57.7283 20.1197C57.7563 20.6163 57.4541 20.9567 56.8214 21.1412C56.2731 21.3114 55.7248 21.3043 55.1764 21.1199C54.6 20.9213 54.3608 20.6163 54.4594 20.2048C54.347 20.4177 54.2343 20.5666 54.1219 20.6517C54.0095 20.751 53.7845 20.8787 53.447 21.0348C53.1237 21.205 52.6598 21.3398 52.0551 21.4391C51.4504 21.5526 50.846 21.581 50.2414 21.5242C49.6367 21.4816 49.0814 21.3327 48.5752 21.0773C48.0832 20.8362 47.7527 20.4531 47.584 19.9282C47.2607 18.9068 47.3029 17.6087 47.7106 16.034C47.9917 14.9983 48.4978 14.0833 49.229 13.2888C50.0726 12.3809 51.0286 11.629 52.0973 11.0332C52.8987 10.5934 53.6721 10.3309 54.4172 10.2458C54.6703 10.2174 54.8881 10.2245 55.071 10.2671C55.2677 10.3096 55.4717 10.3522 55.6826 10.3948C55.9076 10.4373 56.1185 10.5012 56.3153 10.5863C56.8214 10.7991 57.0745 11.0899 57.0745 11.4588ZM53.1729 17.098C53.2714 16.8994 53.3485 16.6511 53.4049 16.3532C53.4751 16.0552 53.5666 15.729 53.679 15.3743C52.5402 15.8424 51.6685 16.417 51.0639 17.098C50.4031 17.8499 50.4453 18.3677 51.1904 18.6514C51.8373 18.8216 52.3082 18.7152 52.6034 18.3322C52.73 18.162 52.8424 17.9492 52.9409 17.6938C53.0394 17.4384 53.1587 17.176 53.2994 16.9064C53.2572 16.9774 53.215 17.0412 53.1729 17.098ZM62.8559 19.758C62.7716 20.0559 62.6734 20.3183 62.5607 20.5453C62.4483 20.7723 62.2796 20.9851 62.0545 21.1837C61.8298 21.3823 61.5625 21.5668 61.2531 21.737C60.944 21.9214 60.6487 22.0491 60.3673 22.12C59.7208 22.2619 59.3833 22.0704 59.355 21.5455C59.3128 21.4036 59.2215 21.3185 59.0808 21.2901C58.9543 21.2759 58.835 21.2405 58.7223 21.1837C58.427 21.056 58.3427 20.7085 58.4692 20.141C58.6943 19.3607 58.9404 18.4173 59.2074 17.3108C59.4746 16.19 59.819 14.9629 60.2408 13.6293C61.2392 10.3948 62.4763 7.47941 63.9526 4.88325C64.0511 4.75557 64.1635 4.59241 64.2901 4.39381C64.4166 4.18101 64.5784 3.98949 64.7751 3.81925C65.2674 3.36528 65.8718 3.25888 66.5889 3.50005C66.575 3.68448 66.6172 3.85472 66.7154 4.01077C66.8139 4.15264 66.9263 4.3016 67.0529 4.45765C67.3764 4.82649 67.5241 5.15989 67.4958 5.45781C66.0056 9.01865 64.6628 12.998 63.4676 17.3959C63.3271 17.9066 63.2145 18.3535 63.1301 18.7365C63.0458 19.1196 62.9545 19.4601 62.8559 19.758ZM70.6371 4.67045L70.6581 4.58533L70.8479 4.39381C71.0025 4.02496 71.1712 3.80505 71.3541 3.73413C71.4526 3.70576 71.5792 3.67029 71.7337 3.62773C71.8883 3.58517 72.0923 3.47877 72.3453 3.30853C72.4439 3.10992 72.6475 3.0248 72.9569 3.05317C73.2664 3.06736 73.5686 3.16665 73.8638 3.35109C74.1732 3.52133 74.4191 3.76249 74.602 4.07461C74.7987 4.38672 74.8481 4.71301 74.7496 5.05349C74.6511 5.37977 74.5667 5.62805 74.4965 5.79829C74.4402 5.95433 74.3769 6.10329 74.3067 6.24517C74.2504 6.38704 74.1732 6.55017 74.0747 6.73461C73.9904 6.90485 73.878 7.13893 73.7373 7.43685L73.0413 8.90517C72.9711 9.0896 72.9078 9.196 72.8515 9.22437C72.8093 9.25273 72.7671 9.3024 72.725 9.37333C72.8515 9.34496 72.957 9.32368 73.0413 9.30949C73.1257 9.29529 73.21 9.28112 73.2944 9.26693C73.4911 9.23856 73.7162 9.21017 73.9693 9.18181C74.1238 9.21017 74.2576 9.22437 74.37 9.22437H74.6652C74.834 9.22437 75.0379 9.27401 75.2769 9.37333C75.5158 9.45845 75.6706 9.61449 75.7408 9.84149C75.811 10.0685 75.8183 10.3026 75.7619 10.5437C75.7056 10.7707 75.5932 10.9835 75.4245 11.1821C75.2558 11.3807 75.0379 11.4871 74.7707 11.5013C73.5475 11.8418 72.6758 12.0262 72.1555 12.0546L72.029 12.2036V12.2248C71.8883 12.5653 71.7337 12.998 71.565 13.5229C71.4104 14.0336 71.2345 14.594 71.0378 15.204C70.8549 15.7999 70.6651 16.4241 70.4683 17.0767C70.2716 17.7151 70.0676 18.3322 69.8567 18.928C69.1818 20.9284 68.6898 22.0136 68.3804 22.1839C68.268 22.2406 68.1484 22.2761 68.0219 22.2903C67.9095 22.3187 67.8462 22.3399 67.8321 22.3541C67.3401 22.3258 66.9321 22.2264 66.6089 22.0562C66.2856 21.886 66.0675 21.7228 65.9551 21.5668C65.8427 21.4107 65.8144 21.2334 65.8707 21.0348C66.1379 18.5663 66.6721 15.8637 67.4736 12.9271C67.1924 12.9271 66.9954 12.9555 66.883 13.0122C66.6721 13.1257 66.4191 13.1895 66.1238 13.2037H66.1027C65.8777 13.1895 65.674 13.0831 65.4911 12.8845C65.3082 12.6859 65.1958 12.4589 65.1536 12.2036C65.1115 11.9482 65.1536 11.6858 65.2802 11.4162C65.4067 11.1467 65.6598 10.9339 66.0394 10.7778C66.4893 10.6501 66.8198 10.5437 67.0307 10.4586C67.4383 10.2884 67.7757 10.1678 68.043 10.0968C68.3241 10.0259 68.4789 9.98336 68.507 9.96917C68.5491 9.9408 68.5772 9.91952 68.5913 9.90533C68.6335 9.87696 68.739 9.86277 68.9077 9.86277C68.992 9.45136 69.0764 9.03285 69.1608 8.60725C69.2451 8.18165 69.3506 7.74896 69.4771 7.30917C69.7582 6.28773 70.145 5.40816 70.6371 4.67045ZM76.3008 11.778C76.4976 11.2672 76.7717 10.8842 77.1233 10.6288C77.4888 10.3593 77.8332 10.1962 78.1567 10.1394C78.4942 10.0685 78.7684 10.1039 78.9793 10.2458C79.204 10.3877 79.2814 10.6076 79.2112 10.9055C79.4782 10.6359 79.865 10.3877 80.3712 10.1607C80.8774 9.93369 81.2781 9.77765 81.5733 9.69253C81.8686 9.60741 82.1217 9.56485 82.3326 9.56485C82.7965 9.59321 82.93 9.84857 82.7333 10.3309C82.9722 10.3735 83.1479 10.5295 83.2605 10.7991C83.3729 11.0686 83.3871 11.3666 83.3027 11.6928C83.2183 12.0191 83.0285 12.3383 82.7333 12.6504C82.438 12.9626 82.0373 13.1754 81.5311 13.2888C81.0389 13.4023 80.6243 13.6648 80.2868 14.0762C79.9633 14.4734 79.6752 14.97 79.4221 15.5658C79.0003 16.5731 78.6207 17.9988 78.2833 19.8431C78.1706 20.5099 77.7139 21.0702 76.9124 21.5242C76.1532 21.964 75.4572 22.0917 74.8245 21.9072C74.1075 21.7086 73.7911 21.1766 73.8755 20.3112C73.9035 19.7012 74.0864 18.8926 74.4238 17.8853C74.7613 16.8639 75.0213 16.0978 75.2041 15.5871C75.3867 15.0622 75.5133 14.665 75.5838 14.3954L76.3008 11.778ZM94.1527 6.16005C94.6305 6.41541 94.933 6.79136 95.0595 7.28789C94.7782 8.8768 94.5251 10.4586 94.3003 12.0333C94.0752 13.5939 93.8574 14.9061 93.6465 15.9701C93.4356 17.0199 93.288 17.8073 93.2036 18.3322C93.1331 18.8571 93.0488 19.382 92.9505 19.9069L92.824 20.3538C92.7957 20.5099 92.7677 20.6517 92.7396 20.7794C92.7113 20.9213 92.6833 21.0702 92.6553 21.2263C92.2615 21.6803 91.7273 21.9072 91.0525 21.9072C90.3354 21.9072 89.766 21.7228 89.3442 21.354C89.0911 21.1554 89.0489 20.7368 89.2176 20.0984C89.2878 19.8431 89.33 19.5168 89.3442 19.1196C89.3722 18.7082 89.4002 18.3677 89.4285 18.0981V18.0556C89.0067 18.2116 88.6271 18.4173 88.2897 18.6727C87.9522 18.9139 87.7413 19.0699 87.657 19.1408C87.5726 19.1976 87.4599 19.2472 87.3195 19.2898C87.1788 19.3182 87.0523 19.3395 86.9399 19.3536C86.6727 19.3678 86.4898 19.4104 86.3916 19.4813C85.576 20.9567 84.8448 21.7796 84.1982 21.9498C83.7903 22.0775 83.3826 22.1059 82.975 22.0349C82.5671 21.9782 82.2438 21.737 82.0048 21.3114C81.5547 20.8858 81.6674 19.7225 82.3423 17.8215C82.7077 16.8142 83.2281 15.6084 83.9029 14.2039C84.5917 12.7852 85.2527 11.551 85.8854 10.5012C87.249 8.24549 88.7464 6.34448 90.3776 4.79813C90.6445 4.68464 90.9328 4.55696 91.2423 4.41509C91.5514 4.25904 91.8539 4.17392 92.1491 4.15973C92.4583 4.14553 92.7746 4.18101 93.0982 4.26613C93.4215 4.35125 93.6956 4.47893 93.9207 4.64917C94.4407 5.0464 94.5182 5.55001 94.1527 6.16005ZM89.6394 11.7567C89.3442 12.6079 89.0489 13.3952 88.7536 14.1188C88.4584 14.8281 88.2053 15.4523 87.9944 15.9914L89.6605 15.9276C89.7729 15.0196 89.8994 14.1188 90.0401 13.225C90.1805 12.3312 90.3143 11.4375 90.4408 10.5437L89.6394 11.7567ZM89.07 16.0127C89.2667 16.0127 89.4635 15.9985 89.6605 15.9701V15.9488C89.4776 15.963 89.3089 15.9772 89.1544 15.9914C88.9995 16.0056 88.9715 16.0127 89.07 16.0127ZM103.315 6.20261C102.823 7.74896 102.366 9.14633 101.944 10.3948C101.537 11.6432 101.157 12.7923 100.805 13.8421C100.468 14.8919 100.152 15.8637 99.8564 16.7575C99.5611 17.6371 99.287 18.4812 99.0339 19.2898C98.8932 20.2261 98.4364 20.8858 97.6631 21.2688C97.2132 21.4816 96.6788 21.588 96.0602 21.588C95.4417 21.588 94.9777 21.5171 94.6683 21.3752C94.3589 21.2476 94.1621 21.056 94.0778 20.8007C93.9792 20.5453 93.9792 20.2403 94.0778 19.8856C94.1621 19.5168 94.3167 19.0203 94.5417 18.396C94.7668 17.7576 95.0479 16.8994 95.3853 15.8212C95.7369 14.743 96.1024 13.6506 96.482 12.544C97.4241 9.77765 98.1692 7.86245 98.7176 6.79845C98.9285 6.40121 99.1394 6.13877 99.3503 6.01109C99.5611 5.86921 99.7651 5.76992 99.9619 5.71317C100.159 5.64224 100.341 5.56421 100.51 5.47909C100.679 5.39397 100.827 5.18117 100.953 4.84069C101.094 4.50021 101.34 4.26613 101.691 4.13845C102.057 4.01077 102.394 4.00368 102.704 4.11717C103.027 4.21648 103.266 4.44345 103.421 4.79813C103.589 5.13861 103.554 5.60677 103.315 6.20261Z" fill="white"></path></svg>