<svg xmlns="http://www.w3.org/2000/svg" width="82" height="26" viewBox="0 0 82 26" fill="none"><g clip-path="url(#clip0_2476_1686)"><path d="M42.9046 21.3954C38.9122 21.3954 36.541 19.084 36.541 14.5566V4.33337H39.0301V14.1986C39.0301 17.654 40.3685 19.2747 42.9054 19.2747C45.4423 19.2747 46.8038 17.6783 46.8038 14.1986V4.33337H49.2937V14.5566C49.2937 19.084 46.8747 21.3954 42.9046 21.3954ZM52.1671 4.33337H54.4922V21.0141H52.1671V4.33337ZM63.115 10.53H60.5576V19.013H63.115V21.015H60.2023C58.8416 21.015 58.1608 20.339 58.1608 18.9896V10.5309H55.9366V8.48297H58.1617V4.40964H60.5576V8.48297H63.115V10.5309V10.53ZM67.5438 21.0141H65.2188V9.48137H67.5438V10.1253C67.5438 10.5777 67.5438 11.0301 67.5199 11.46C68.0837 10.1487 69.2582 9.10004 70.9964 9.10004C71.1604 9.10004 71.3483 9.10004 71.5362 9.12431V11.4591C71.3722 11.4114 71.1604 11.388 70.8315 11.388C68.8123 11.388 67.543 12.5078 67.543 15.0575V21.015L67.5438 21.0141ZM76.0872 21.3954C73.9732 21.3954 72.1649 20.0608 72.1649 17.8447C72.1649 15.4856 73.9962 14.508 76.1812 14.1752L78.3183 13.8416C79.2109 13.6986 79.5159 13.3883 79.5159 12.7452C79.5159 11.6489 78.6702 10.9105 77.3787 10.9105C75.8053 10.9105 74.9128 11.7919 74.8419 13.1266H72.4698C72.5877 10.9105 74.3251 9.09917 77.2139 9.09917C80.2906 9.09917 81.8178 10.8628 81.8178 13.7462V21.0141H79.6098V20.4664C79.6098 20.1327 79.6337 19.799 79.6568 19.442C79.093 20.6094 77.8724 21.3954 76.0872 21.3954ZM76.557 19.5841C78.2483 19.5841 79.5398 18.3933 79.5398 16.6054V15.08C79.3519 15.295 78.9521 15.438 78.2474 15.581L76.8859 15.8436C75.5465 16.1053 74.56 16.653 74.56 17.797C74.56 18.941 75.4526 19.585 76.5562 19.585L76.557 19.5841Z" fill="white"></path><path fill-rule="evenodd" clip-rule="evenodd" d="M11.879 0.433334L1.963 6.7392C1.56069 6.99495 1.22901 7.3502 0.999079 7.77163C0.769143 8.19305 0.648489 8.66684 0.648438 9.14853V16.5256C0.648438 17.4807 1.12079 18.3716 1.90663 18.8985L11.8235 25.5433C12.2121 25.8041 12.6495 25.9567 13.0945 26.0009L11.4588 16.8402L2.25 10.9183L20.5667 4.0066L14.8379 0.422934C14.3928 0.144433 13.8799 -0.00218701 13.357 -0.000349143C12.8341 0.00148872 12.3222 0.151711 11.879 0.433334ZM23.2565 5.68793L14.4501 25.7937C14.603 25.7279 14.7516 25.6481 14.8942 25.5545L24.9973 18.8951C25.3891 18.6369 25.711 18.2835 25.9339 17.867C26.1568 17.4504 26.2735 16.984 26.2734 16.51V9.16153C26.2735 8.6762 26.151 8.19895 25.9178 7.77523C25.6845 7.35151 25.3482 6.99544 24.9409 6.74093L23.2565 5.68793Z" fill="white"></path></g><defs><clipPath id="clip0_2476_1686"><rect width="82" height="26" fill="white"></rect></clipPath></defs></svg>