<svg xmlns="http://www.w3.org/2000/svg" width="84" height="26" viewBox="0 0 84 26" fill="none"><path d="M19.444 11.6046C19.3845 11.2743 19.2701 10.9737 19.101 10.7027C18.9316 10.4318 18.6858 10.2157 18.3639 10.0547C18.0422 9.89378 17.6185 9.81326 17.0934 9.81326C16.5856 9.81326 16.1363 9.88943 15.7468 10.0419C15.3571 10.1943 15.0183 10.3977 14.7305 10.6518C14.4421 10.9057 14.2009 11.2025 14.0062 11.541C13.8105 11.8818 13.6448 12.2389 13.5107 12.6083H19.533C19.533 12.2697 19.5031 11.9349 19.444 11.6046ZM13.1042 15.124V15.6577C13.1042 16.4198 13.3409 17.0385 13.8157 17.5125C14.2898 17.9869 15.0183 18.2241 16.0011 18.2241C16.3568 18.2241 16.6743 18.1692 16.9539 18.0587C17.2335 17.9489 17.4787 17.8091 17.6906 17.6395C17.9022 17.4704 18.0885 17.2756 18.2499 17.0551C18.4105 16.8351 18.5584 16.6232 18.6942 16.4198H22.3026C22.0144 17.1654 21.6756 17.8173 21.286 18.3764C20.8965 18.9353 20.4306 19.4054 19.8887 19.7867C19.3464 20.1679 18.7155 20.4516 17.9956 20.638C17.2752 20.8241 16.4412 20.9174 15.4925 20.9174C14.6115 20.9174 13.8115 20.7987 13.0917 20.5618C12.3712 20.3248 11.7573 19.9645 11.2493 19.4817C10.7411 18.999 10.347 18.4018 10.0674 17.6904C9.78821 16.9788 9.64844 16.149 9.64844 15.2002C9.64844 14.1501 9.81752 13.138 10.1568 12.1636C10.4953 11.1898 10.9739 10.3258 11.5923 9.57187C12.2106 8.81823 12.9685 8.21677 13.8664 7.76765C14.7643 7.31901 15.7722 7.09436 16.8903 7.09436C17.8051 7.09436 18.6393 7.21305 19.3932 7.45009C20.1466 7.68745 20.7909 8.0472 21.3244 8.52998C21.8579 9.01276 22.2727 9.61422 22.5693 10.334C22.8658 11.0543 23.0143 11.8883 23.0143 12.837C23.0143 13.481 22.9461 14.1671 22.8109 14.8952H13.1297C13.1124 14.9802 13.1042 15.0565 13.1042 15.124ZM32.496 7.45002L31.9369 9.86392H29.3703L28.0237 16.3945C27.9896 16.5302 27.9643 16.653 27.9477 16.7628C27.9308 16.8732 27.9223 16.9534 27.9223 17.0042C27.9223 17.2417 27.9603 17.4237 28.0365 17.5506C28.1128 17.6776 28.2101 17.7754 28.3287 17.8428C28.4471 17.9108 28.5787 17.9488 28.7225 17.9572C28.8622 17.9656 29.0021 17.9698 29.1421 17.9697C29.5824 17.9697 30.0141 17.9444 30.438 17.8936L29.8281 20.6633C29.4552 20.697 29.0824 20.727 28.7097 20.7522C28.3371 20.7777 27.9561 20.7904 27.5666 20.7904C27.1427 20.7904 26.7237 20.7522 26.3087 20.6761C25.8933 20.5997 25.5208 20.4643 25.1904 20.2695C24.8601 20.0749 24.5974 19.8081 24.4031 19.4691C24.2079 19.1305 24.1192 18.69 24.1361 18.1478C24.1361 17.9786 24.153 17.7881 24.1868 17.576C24.2206 17.3644 24.2631 17.1401 24.3138 16.9026L25.7876 9.86392H23.4248L23.9836 7.45002H26.2962L27.1089 3.46073H30.7174L29.9041 7.45002H32.496Z" fill="white"></path><path d="M42.2138 7.45002L41.6547 9.86392H39.0881L37.7415 16.3945C37.7074 16.5302 37.6821 16.653 37.6655 16.7628C37.6486 16.8732 37.6401 16.9534 37.6401 17.0042C37.6401 17.2417 37.6781 17.4237 37.7543 17.5506C37.8306 17.6776 37.9279 17.7754 38.0465 17.8428C38.1649 17.9108 38.2965 17.9488 38.4403 17.9572C38.58 17.9656 38.72 17.9698 38.8599 17.9697C39.3002 17.9697 39.7319 17.9444 40.1558 17.8936L39.5459 20.6633C39.173 20.697 38.8002 20.727 38.4276 20.7522C38.0549 20.7777 37.6739 20.7904 37.2844 20.7904C36.8605 20.7904 36.4414 20.7522 36.0265 20.6761C35.6111 20.5997 35.2386 20.4643 34.9082 20.2695C34.5779 20.0749 34.3152 19.8081 34.1209 19.4691C33.9257 19.1305 33.837 18.69 33.8539 18.1478C33.8539 17.9786 33.8708 17.7881 33.9046 17.576C33.9384 17.3644 33.9809 17.1401 34.0317 16.9026L35.5054 9.86392H33.1426L33.7014 7.45002H36.014L36.8267 3.46073H40.4352L39.6219 7.45002H42.2138ZM47.8791 7.45002L45.0839 20.5872H41.4758L44.2457 7.45002H47.8791ZM53.997 7.45002L53.5905 9.30497H53.6412C54.1836 8.54264 54.8442 7.98369 55.6234 7.62781C56.4025 7.27224 57.275 7.0943 58.2407 7.0943C59.0537 7.0943 59.7481 7.27224 60.3243 7.62781C60.9 7.98369 61.2644 8.56808 61.4169 9.38114C61.6371 9.04249 61.9163 8.7333 62.2554 8.45375C62.5933 8.17479 62.9595 7.93207 63.348 7.72958C63.7376 7.52619 64.1485 7.36983 64.5803 7.25952C65.0126 7.14937 65.4402 7.0943 65.8635 7.0943C66.3719 7.0943 66.8674 7.16226 67.3502 7.29753C67.833 7.43344 68.2605 7.63666 68.6335 7.90752C69.006 8.17854 69.3026 8.52589 69.5229 8.94925C69.7427 9.37293 69.8532 9.86392 69.8532 10.423C69.8532 10.8295 69.8107 11.2404 69.7261 11.6554C69.6412 12.0707 69.5567 12.473 69.4718 12.8625L67.8457 20.5872H64.2373L65.9655 12.278C66.033 11.9393 66.0669 11.6261 66.0669 11.3379C66.0669 10.9483 65.9185 10.618 65.6223 10.3467C65.3257 10.076 64.9489 9.94025 64.4915 9.94025C64.0171 9.94025 63.5894 10.0546 63.2083 10.2834C62.8273 10.5119 62.497 10.8003 62.2174 11.1472C61.9377 11.4947 61.7047 11.8801 61.5187 12.3034C61.3321 12.7271 61.1965 13.1419 61.1119 13.5484L59.6383 20.5872H56.0047L57.7325 12.278C57.8001 11.9393 57.8339 11.6261 57.8339 11.3379C57.8339 10.9483 57.6856 10.618 57.3895 10.3467C57.093 10.076 56.7162 9.94025 56.2587 9.94025C55.7844 9.94025 55.3566 10.0546 54.9756 10.2834C54.5942 10.5119 54.2638 10.8003 53.9842 11.1472C53.705 11.4947 53.4718 11.8801 53.2857 12.3034C53.099 12.7271 52.9638 13.1419 52.8792 13.5484L51.4051 20.5872H47.8224L50.5413 7.45002H53.997ZM80.4292 11.6046C80.3698 11.2743 80.2553 10.9737 80.0862 10.7027C79.9165 10.4318 79.6707 10.2157 79.3495 10.0547C79.0274 9.89378 78.6037 9.81326 78.0789 9.81326C77.5705 9.81326 77.1215 9.88943 76.732 10.0419C76.3423 10.1943 76.0035 10.3977 75.7157 10.6518C75.4273 10.9057 75.1858 11.2025 74.9914 11.541C74.7964 11.8801 74.6315 12.236 74.4959 12.6083H80.5179C80.5179 12.2697 80.4883 11.9349 80.4292 11.6046ZM74.0893 15.124V15.6577C74.0893 16.4198 74.3265 17.0385 74.8009 17.5125C75.275 17.9869 76.0035 18.2241 76.986 18.2241C77.3418 18.2241 77.6596 18.1692 77.9388 18.0587C78.2185 17.9489 78.4639 17.8091 78.6758 17.6395C78.8874 17.4704 79.0738 17.2756 79.2348 17.0551C79.396 16.8351 79.544 16.6232 79.6797 16.4198H83.2879C82.9998 17.1654 82.6611 17.8173 82.2716 18.3764C81.8815 18.9353 81.4158 19.4054 80.874 19.7867C80.3314 20.1679 79.7007 20.4516 78.9808 20.638C78.2607 20.8241 77.4265 20.9174 76.4781 20.9174C75.597 20.9174 74.7964 20.7987 74.0766 20.5618C73.3564 20.3248 72.7426 19.9645 72.2345 19.4817C71.7263 18.999 71.3325 18.4018 71.053 17.6904C70.7734 16.9788 70.6336 16.149 70.6336 15.2002C70.6336 14.1501 70.8029 13.138 71.1417 12.1636C71.4805 11.1898 71.9588 10.3258 72.5775 9.57187C73.1955 8.81823 73.9537 8.21677 74.8519 7.76765C75.7492 7.31901 76.7576 7.09436 77.8755 7.09436C78.7903 7.09436 79.6242 7.21305 80.3785 7.45009C81.1321 7.68745 81.7758 8.0472 82.3096 8.52998C82.8431 9.01276 83.2582 9.61422 83.5549 10.334C83.8507 11.0543 83.9993 11.8883 83.9993 12.837C83.9993 13.481 83.9317 14.1671 83.7961 14.8952H74.1149C74.0977 14.9802 74.0893 15.0565 74.0893 15.124Z" fill="white"></path><path d="M6.68845 3.46058L3.28355 19.8754C3.23282 20.045 3.1821 20.2609 3.13105 20.5234C3.08032 20.7859 3.00399 21.0444 2.90254 21.2985C2.80077 21.5526 2.67371 21.7685 2.52153 21.9463C2.36871 22.1243 2.16549 22.2132 1.91154 22.2132C1.6914 22.2132 1.47562 22.2088 1.2637 22.2004C1.05161 22.1917 0.836151 22.179 0.615695 22.1624L0.00585938 25.0591C0.29869 25.0763 0.590978 25.1017 0.882369 25.1354C1.17915 25.1691 1.47143 25.1862 1.75888 25.1862C2.57226 25.1862 3.24973 25.1013 3.79209 24.932C4.33365 24.7625 4.79115 24.5084 5.16394 24.1699C5.53657 23.8307 5.83304 23.3987 6.05349 22.8739C6.2733 22.3486 6.45994 21.7387 6.61244 21.0444L10.2969 3.46058H6.68845Z" fill="white"></path><path d="M78.8663 3.24967C78.8663 3.24967 47.9277 5.68933 46.5803 5.68933C45.2329 5.68933 44.1406 4.59704 44.1406 3.24967C44.1406 1.9023 45.2329 0.810005 46.5803 0.810005C47.9277 0.810005 78.8663 3.24967 78.8663 3.24967Z" fill="white"></path></svg>