<svg xmlns="http://www.w3.org/2000/svg" width="139" height="25" viewBox="0 0 139 25" fill="none"><path d="M18.3816 11.506C18.3233 10.6024 18.0898 9.6988 17.623 8.91566L13.6549 1.74699C13.3631 1.20482 13.1297 0.60241 13.013 0L12.838 0.301205C11.8459 2.04819 11.8459 4.27711 12.838 6.0241L16.0474 11.747C17.0395 13.494 17.0395 15.7229 16.0474 17.4699L15.8724 17.7711C15.7557 17.1687 15.5223 16.5663 15.2305 16.0241L12.3128 10.7831L10.4454 7.40964C10.1537 6.86747 9.92023 6.26506 9.80353 5.66265L9.62846 5.96386C8.63644 7.71084 8.63644 9.87952 9.62846 11.6867L12.838 17.4096C13.83 19.1566 13.83 21.3855 12.838 23.1325L12.6629 23.4337C12.5462 22.8313 12.3128 22.2289 12.021 21.6867L7.99454 14.5181C7.46935 13.5542 7.23594 12.4699 7.23594 11.3855C2.97607 12.5301 0 15 0 17.8313C0 21.8072 5.71872 25 12.7796 25C19.8405 25 25.5592 21.8072 25.5592 17.8313C25.6175 15.1205 22.6998 12.6506 18.3816 11.506ZM30.461 23.7349C30.5193 22.7108 30.636 22.0482 30.9278 21.2048C32.2699 21.8675 34.0206 22.1687 35.3044 22.1687C37.5218 22.1687 38.8056 21.4458 38.8056 19.9398C38.8056 18.494 37.872 17.8313 35.6545 16.8072L34.4291 16.3253C32.1532 15.3012 30.636 13.9759 30.636 11.3855C30.636 8.55422 32.5617 6.74699 36.4131 6.74699C37.9887 6.74699 39.4475 6.98795 40.7897 7.46988C40.7313 8.43373 40.5563 9.21687 40.3228 9.93976C39.039 9.45783 37.4635 9.21687 36.3547 9.21687C34.254 9.21687 33.3203 10.0602 33.3203 11.3855C33.3203 12.6506 34.254 13.4337 35.9463 14.1566L37.2301 14.6988C40.2645 16.0241 41.5483 17.4699 41.5483 19.8795C41.5483 22.7108 39.4475 24.6988 35.3627 24.6988C33.437 24.6988 31.8031 24.3976 30.461 23.7349ZM54.4446 11.8675V24.2771H51.9937L51.877 22.7711C51.1767 23.8554 50.1847 24.5783 48.4924 24.5783C45.3413 24.5783 43.1822 22.1687 43.1822 18.012C43.1822 13.6747 45.458 11.1446 49.8929 11.1446C51.6436 11.2048 53.1024 11.3855 54.4446 11.8675ZM51.8186 21.4458V13.6747C51.2934 13.5542 50.6516 13.5542 49.8929 13.5542C47.1503 13.5542 45.8665 15.3012 45.8665 18.0723C45.8665 20.6024 46.8585 22.4096 49.1927 22.4096C50.3014 22.3494 51.1184 21.988 51.8186 21.4458ZM67.9828 15.9639V24.2771H65.3568V16.4458C65.3568 14.4578 64.7149 13.5542 62.089 13.5542C61.4471 13.5542 60.7469 13.6145 59.9882 13.7349V24.2771H57.3623V11.8675C59.0546 11.4458 60.9219 11.1446 62.1474 11.1446C66.5823 11.2048 67.9828 12.9518 67.9828 15.9639ZM75.3354 22.2892C76.094 22.2892 76.8526 22.1687 77.3778 21.9277C77.3195 22.6506 77.2028 23.494 77.0861 24.2169C76.3858 24.5181 75.5688 24.6386 74.8686 24.6386C72.301 24.6386 70.6671 23.4337 70.6671 20.4217V7.3494C71.484 7.04819 72.4761 6.92771 73.293 6.92771V11.6265H77.4945C77.4362 12.4699 77.3778 13.253 77.2611 13.9759H73.293V20.0602C73.293 21.6265 74.0516 22.2892 75.3354 22.2892ZM89.5155 11.8675V24.2771H87.0647L86.9479 22.7711C86.2477 23.8554 85.2557 24.5783 83.5634 24.5783C80.4122 24.5783 78.2532 22.1687 78.2532 18.012C78.2532 13.6747 80.529 11.1446 84.9639 11.1446C86.7145 11.2048 88.115 11.3855 89.5155 11.8675ZM86.8312 21.4458V13.6747C86.306 13.5542 85.6641 13.5542 84.9055 13.5542C82.1629 13.5542 80.8791 15.3012 80.8791 18.0723C80.8791 20.6024 81.8711 22.4096 84.2053 22.4096C85.314 22.3494 86.1893 21.988 86.8312 21.4458ZM103.054 15.9639V24.2771H100.369V16.4458C100.369 14.4578 99.7275 13.5542 97.1016 13.5542C96.4597 13.5542 95.7594 13.6145 95.0008 13.7349V24.2771H92.3749V11.8675C94.0672 11.4458 95.9345 11.1446 97.1599 11.1446C101.595 11.2048 103.054 12.9518 103.054 15.9639ZM116.417 6.92771V24.2771H113.966L113.849 22.7108C113.149 23.8554 112.157 24.5783 110.406 24.5783C107.255 24.5783 105.096 22.1687 105.096 18.012C105.096 13.6747 107.372 11.1446 111.807 11.1446C112.507 11.1446 113.149 11.2048 113.791 11.3253V7.22892C114.608 6.98795 115.542 6.92771 116.417 6.92771ZM113.791 21.4458V13.7952C113.091 13.6747 112.39 13.5542 111.69 13.5542C109.064 13.5542 107.839 15.241 107.839 18.0723C107.839 20.6024 108.831 22.4096 111.165 22.4096C112.215 22.3494 113.091 21.988 113.791 21.4458ZM129.722 18.9759H121.26C121.61 21.2048 122.836 22.2289 125.228 22.2289C126.687 22.2289 128.146 21.9277 129.43 21.2651C129.313 21.988 129.196 22.9518 129.021 23.7349C127.796 24.2771 126.571 24.5181 125.112 24.5181C120.677 24.5181 118.576 21.988 118.576 17.7711C118.576 14.0964 120.21 11.1446 124.411 11.1446C128.204 11.1446 129.838 13.6747 129.838 16.8072C129.838 17.6506 129.838 18.253 129.722 18.9759ZM121.26 16.6867H127.212C127.212 14.6386 126.162 13.4337 124.353 13.4337C122.427 13.494 121.435 14.5783 121.26 16.6867ZM139 11.3253C139 12.1687 138.883 13.1325 138.767 13.6747C138.125 13.6145 137.541 13.5542 136.783 13.5542C136.141 13.5542 135.499 13.6145 134.857 13.6747V24.2771H132.231V11.8675C133.34 11.4458 135.265 11.1446 136.724 11.1446C137.483 11.2048 138.416 11.2048 139 11.3253Z" fill="white"></path></svg>