<svg xmlns="http://www.w3.org/2000/svg" width="101" height="17" viewBox="0 0 101 17" fill="none"><path d="M30.7596 8.32264C30.7596 12.9966 34.4314 16.6209 39.1542 16.6209C40.4903 16.6209 41.6325 16.3588 43.0431 15.6958V12.0433C41.8033 13.2844 40.7049 13.7841 39.2981 13.7841C36.1735 13.7841 33.956 11.5191 33.956 8.29823C33.956 5.24565 36.2455 2.83674 39.1542 2.83674C40.6342 2.83674 41.7545 3.36477 43.0431 4.6264V0.976411C41.6826 0.285213 40.5623 0 39.2274 0C34.5278 0 30.7596 3.69752 30.7596 8.32264Z" fill="white"></path><path d="M22.7979 4.45936C22.7979 5.31886 23.3452 5.77237 25.2068 6.461C28.7361 7.75218 29.7819 8.89561 29.7819 11.424C29.7819 14.5023 27.5194 16.6452 24.296 16.6452C21.9359 16.6452 20.2194 15.7151 18.7895 13.6171L20.7937 11.6887C21.508 13.0698 22.7003 13.8085 24.179 13.8085C25.564 13.8085 26.588 12.8539 26.588 11.5653C26.588 10.8973 26.277 10.3243 25.6578 9.91956C25.3456 9.72813 24.7276 9.44291 23.5135 9.01381C20.5997 7.96545 19.6002 6.84386 19.6002 4.65335C19.6002 2.05044 21.747 0.0950415 24.5606 0.0950415C26.304 0.0950415 27.8997 0.692454 29.2346 1.85901L27.6106 3.98528C26.8025 3.07824 26.0394 2.69667 25.1092 2.69667C23.7718 2.69667 22.7979 3.45725 22.7979 4.45936Z" fill="white"></path><path fill-rule="evenodd" clip-rule="evenodd" d="M4.55446 0.35834H0V16.2623H4.53005C6.93769 16.2623 8.67853 15.6957 10.2048 14.4264C12.0189 12.9245 13.0917 10.6621 13.0917 8.32253C13.0917 3.62804 9.58428 0.35834 4.55446 0.35834ZM8.17748 12.3066C7.20235 13.1866 5.93686 13.5708 3.93264 13.5708H3.10012V3.05375H3.93264C5.93686 3.05375 7.15224 3.41091 8.17748 4.33979C9.25153 5.29436 9.8952 6.77569 9.8952 8.29812C9.8952 9.82569 9.25153 11.352 8.17748 12.3066Z" fill="white"></path><path d="M17.6216 0.35834H14.519V16.2623H17.6216V0.35834Z" fill="white"></path><path d="M63.3989 0.35834L67.6412 11.0411L71.9374 0.35834H75.2996L68.4287 16.6721H66.7598L60.011 0.35834H63.3989Z" fill="white"></path><path d="M76.7026 16.2623H85.5006V13.5708H79.8027V9.2771H85.2899V6.58297H79.8027V3.05375H85.5006V0.35834H76.7026V16.2623Z" fill="white"></path><path fill-rule="evenodd" clip-rule="evenodd" d="M92.1543 0.35834C95.7323 0.35834 97.7853 2.07605 97.7853 5.05411C97.7853 7.49001 96.4967 9.08824 94.1598 9.56231L99.1665 16.2623H95.352L91.0584 9.87451H90.6524V16.2623H87.5548V0.35834H92.1543ZM90.6524 7.68016H91.5607C93.5418 7.68016 94.5914 6.82065 94.5914 5.22113C94.5914 3.67301 93.5418 2.86361 91.6082 2.86361H90.6524V7.68016Z" fill="white"></path><path fill-rule="evenodd" clip-rule="evenodd" d="M100.257 1.19221C100.257 0.913414 100.063 0.76053 99.7254 0.76053H99.2757V2.1622H99.6097V1.61875L100.002 2.1622H100.411L99.9502 1.58406C100.147 1.53138 100.257 1.38749 100.257 1.19221ZM99.6663 1.38364H99.6097V1.01748H99.6701C99.8359 1.01748 99.9219 1.07658 99.9219 1.19735C99.9219 1.32197 99.8346 1.38364 99.6663 1.38364Z" fill="white"></path><path fill-rule="evenodd" clip-rule="evenodd" d="M98.5705 1.45812C98.5705 0.779765 99.1127 0.236314 99.7923 0.236314C100.455 0.236314 101 0.788759 101 1.45812C101 2.13133 100.455 2.6812 99.7923 2.6812C99.1178 2.6812 98.5705 2.13775 98.5705 1.45812ZM98.8133 1.46068C98.8133 2.01698 99.2514 2.4628 99.7872 2.4628C100.322 2.4628 100.756 2.01184 100.756 1.46068C100.756 0.912094 100.322 0.456009 99.7872 0.456009C99.2476 0.456009 98.8133 0.901815 98.8133 1.46068Z" fill="white"></path></svg>