<svg xmlns="http://www.w3.org/2000/svg" width="187" height="26" viewBox="0 0 187 26" fill="none"><g clip-path="url(#clip0_2476_1615)"><path d="M33.9143 21.2727V4.13636H44.9032V7.09091H37.3246V11.2273H44.1453V14.1818H37.3246V21.2727H33.9143ZM47.1767 21.2727V8.4697H50.587V21.2727H47.1767ZM48.8819 6.69697L47.5556 6.30303C47.1767 5.90909 46.9872 5.51515 46.9872 4.92424L47.5556 3.74242C47.9346 3.34848 48.3135 3.15152 48.8819 3.15152C49.4503 3.15152 49.8292 3.34848 50.2081 3.74242L50.7765 4.92424C50.7765 5.51515 50.587 5.90909 50.2081 6.30303L48.8819 6.69697ZM53.429 21.2727V8.4697H56.6499V10.6364H56.8393C57.0288 9.84848 57.4077 9.25758 57.9761 8.86364C58.5445 8.4697 59.1129 8.27273 59.8707 8.27273C60.1918 8.30717 60.509 8.37312 60.818 8.4697V11.6212L60.2497 11.4242H59.4918L57.9761 11.6212C57.5978 11.8705 57.2921 12.2223 57.0918 12.6388C56.8915 13.0553 56.8042 13.5206 56.8393 13.9848V21.2727H53.429ZM72.9437 12.0152L69.7228 12.2121L69.5333 11.6212L68.7755 11.0303L67.8282 10.8333C67.2598 10.8333 66.6914 10.8333 66.3125 11.2273C65.9335 11.4242 65.9335 11.6212 65.9335 12.0152L66.123 12.803L67.4493 13.3939L69.7228 13.7879C70.8596 14.1818 71.8069 14.5758 72.3753 15.1667C72.9437 15.5606 73.3226 16.3485 73.3226 17.3333C73.3226 18.1212 72.9437 18.9091 72.5648 19.5C71.9964 20.2879 71.428 20.6818 70.4807 21.0758C69.7228 21.4697 68.7755 21.6667 67.6387 21.6667C66.123 21.6667 64.7968 21.2727 63.8495 20.4848C62.9021 19.697 62.3338 18.9091 62.1443 17.5303L65.5546 17.3333C65.5546 17.9242 65.7441 18.3182 66.3125 18.5152C66.6914 18.9091 67.0703 18.9091 67.6387 18.9091L69.1544 18.7121C69.5333 18.3182 69.7228 18.1212 69.7228 17.7273L69.3439 16.9394L68.2071 16.3485L65.9335 15.9545C64.7968 15.7576 63.8495 15.3636 63.2811 14.5758C62.7127 13.9848 62.5232 13.197 62.5232 12.2121C62.5232 11.4242 62.7127 10.6364 63.0916 10.0455C63.4705 9.45455 64.0389 9.06061 64.9862 8.66667L67.6387 8.27273C69.3439 8.27273 70.4807 8.66667 71.428 9.25758C72.3753 10.0455 72.7542 10.8333 72.9437 12.0152ZM82.0379 8.4697V11.0303H74.4594V8.4697H82.0379ZM76.1646 5.31818H79.7644V18.1212L80.1433 18.5152L80.9011 18.7121C81.1609 18.6807 81.4156 18.6145 81.659 18.5152L82.2274 21.0758C81.6101 21.2726 80.9754 21.4045 80.3327 21.4697C79.5749 21.4697 78.817 21.4697 78.2486 21.0758C77.4908 20.8788 77.1119 20.4848 76.7329 19.8939C76.354 19.303 76.1646 18.7121 76.1646 17.9242V5.31818ZM90.5637 15.3636H93.5952L95.1109 17.3333L96.4371 19.1061L99.279 22.6515H96.0582L94.1635 20.2879L93.0268 18.9091L90.5637 15.3636ZM99.4685 12.803C99.4685 14.5758 99.0896 16.1515 98.5212 17.5303C97.7633 18.9091 96.816 19.8939 95.6792 20.4848C94.5425 21.2727 93.2162 21.4697 91.7005 21.4697C90.3312 21.5075 88.98 21.1384 87.8054 20.4057C86.6308 19.673 85.6816 18.6072 85.0693 17.3333C84.3115 16.1515 83.9325 14.5758 83.9325 12.803C83.9325 10.8333 84.3115 9.25758 85.0693 7.87879C85.6377 6.69697 86.585 5.71212 87.7218 4.92424C89.048 4.33333 90.3743 3.93939 91.7005 3.93939C93.2162 3.93939 94.5425 4.33333 95.6792 4.92424C96.816 5.71212 97.7633 6.69697 98.5212 7.87879C99.0896 9.25758 99.4685 10.8333 99.4685 12.803ZM96.0582 12.803C96.0582 11.4242 95.8687 10.4394 95.4898 9.65152L93.9741 7.68182C93.4057 7.28788 92.6478 7.09091 91.7005 7.09091C90.9427 7.09091 90.1848 7.28788 89.6164 7.68182C88.8586 8.27273 88.4797 8.86364 88.1007 9.65152C87.7218 10.4394 87.5323 11.4242 87.5323 12.803C87.5323 13.9848 87.7218 14.9697 88.1007 15.7576C88.4797 16.5455 88.8586 17.3333 89.6164 17.7273C90.1848 18.1212 90.9427 18.3182 91.7005 18.3182C92.6478 18.3182 93.4057 18.1212 93.9741 17.7273C94.5425 17.3333 95.1109 16.5455 95.4898 15.7576C95.8687 14.9697 96.0582 13.9848 96.0582 12.803ZM110.078 15.7576V8.4697H113.489V21.2727H110.078V18.9091C109.7 19.697 109.321 20.2879 108.563 20.8788C107.994 21.2727 107.236 21.4697 106.289 21.4697C105.342 21.4697 104.584 21.2727 104.016 20.8788L102.5 19.303L102.121 16.5455V8.4697H105.531V15.9545C105.531 16.7424 105.721 17.3333 106.1 17.7273C106.479 18.3182 107.047 18.5152 107.615 18.5152L108.752 18.1212L109.7 17.3333L110.078 15.7576ZM119.741 21.4697C118.983 21.4697 118.225 21.4697 117.657 21.0758C116.899 20.8788 116.52 20.4848 116.141 19.8939C115.762 19.303 115.573 18.5152 115.573 17.7273L115.952 15.9545C116.141 15.3636 116.52 14.9697 117.089 14.7727L118.415 13.9848L120.309 13.7879C121.199 13.619 122.084 13.4219 122.962 13.197L123.341 12.6061C123.341 12.0152 123.151 11.6212 122.772 11.2273L121.446 10.8333L119.931 11.2273L119.173 12.4091L115.952 12.0152C116.107 11.2494 116.45 10.5384 116.948 9.95158C117.446 9.36475 118.082 8.92207 118.794 8.66667L121.446 8.27273L123.341 8.4697C124.099 8.66667 124.667 8.86364 125.046 9.25758C125.591 9.60748 126.037 10.1023 126.336 10.6909C126.636 11.2795 126.779 11.9407 126.751 12.6061V21.2727H123.53V19.5H123.341C123.127 19.9271 122.833 20.3045 122.474 20.6093C122.116 20.914 121.702 21.1398 121.257 21.2727L119.741 21.4697ZM120.688 19.1061L122.015 18.7121L122.962 17.9242L123.341 16.7424V15.3636L122.772 15.5606C122.336 15.664 121.893 15.7299 121.446 15.7576C120.877 15.8862 120.309 16.0175 119.741 16.1515L119.173 16.7424L118.794 17.5303C118.794 18.1212 118.983 18.5152 119.362 18.7121L120.688 19.1061ZM133.951 21.4697C133.003 21.4697 132.056 21.2727 131.298 20.6818C130.54 20.2879 129.972 19.5 129.593 18.5152C129.214 17.5303 128.835 16.3485 128.835 14.9697C128.835 13.3939 129.214 12.2121 129.593 11.2273C129.972 10.2424 130.73 9.45455 131.488 9.06061C132.107 8.66738 132.805 8.42735 133.528 8.35904C134.25 8.29074 134.979 8.39599 135.656 8.66667L136.793 9.45455L137.361 10.6364H137.551V4.13636H140.961V21.2727H137.551V19.303H137.361C137.361 19.697 136.982 19.8939 136.793 20.2879L135.656 21.2727L133.951 21.4697ZM135.088 18.7121C135.656 18.7121 136.035 18.5152 136.414 18.1212C136.793 17.9242 137.172 17.5303 137.361 16.9394L137.551 14.9697L137.361 12.803L136.414 11.6212C136.035 11.2273 135.656 11.0303 135.088 11.0303C134.519 11.0303 133.951 11.2273 133.572 11.6212C133.193 11.8182 133.003 12.4091 132.625 13L132.435 14.9697L132.625 16.9394L133.572 18.1212C133.951 18.5152 134.519 18.7121 135.088 18.7121ZM143.803 21.2727V8.4697H147.213V10.6364L148.35 8.86364C148.918 8.4697 149.487 8.27273 150.245 8.27273C150.629 8.29366 151.011 8.35973 151.381 8.4697V11.6212L150.624 11.4242H149.866L148.539 11.6212C148.126 11.8445 147.782 12.185 147.547 12.6034C147.312 13.0218 147.197 13.5008 147.213 13.9848V21.2727H143.803ZM156.307 21.4697C155.55 21.4697 154.792 21.4697 154.223 21.0758C153.655 20.8788 153.087 20.4848 152.708 19.8939C152.329 19.303 152.139 18.5152 152.139 17.7273L152.518 15.9545C152.897 15.3636 153.087 14.9697 153.655 14.7727L155.171 13.9848L156.876 13.7879C157.766 13.619 158.65 13.4219 159.528 13.197L159.907 12.6061C159.907 12.0152 159.718 11.6212 159.339 11.2273L158.013 10.8333L156.497 11.2273L155.739 12.4091L152.708 12.0152C152.845 11.2709 153.16 10.5744 153.623 9.98941C154.087 9.40441 154.684 8.94962 155.36 8.66667L158.013 8.27273L159.907 8.4697C160.665 8.66667 161.233 8.86364 161.612 9.25758C162.158 9.60748 162.603 10.1023 162.903 10.6909C163.202 11.2795 163.346 11.9407 163.318 12.6061V21.2727H160.097V19.5H159.907C159.505 20.3114 158.831 20.9418 158.013 21.2727L156.307 21.4697ZM157.255 19.1061L158.581 18.7121L159.528 17.9242L159.907 16.7424V15.3636L159.339 15.5606C158.965 15.6541 158.585 15.7199 158.202 15.7576C157.633 15.8862 157.065 16.0175 156.497 16.1515L155.739 16.7424L155.55 17.5303C155.55 18.1212 155.55 18.5152 155.928 18.7121L157.255 19.1061ZM169.38 13.7879V21.2727H165.97V8.4697H169.191V10.6364H169.38C169.57 10.0455 170.138 9.45455 170.707 8.86364C171.464 8.4697 172.222 8.27273 173.17 8.27273L175.443 8.86364C176.012 9.25758 176.58 9.84848 176.769 10.4394C177.148 11.2273 177.338 12.0152 177.338 13.197V21.2727H173.927V13.7879C173.927 13 173.738 12.4091 173.359 11.8182C172.98 11.4242 172.412 11.2273 171.654 11.2273L170.517 11.6212L169.759 12.4091L169.38 13.7879ZM186.622 8.4697V11.0303H179.232V8.4697H186.622ZM180.938 5.31818H184.348V17.3333L184.537 18.1212L184.916 18.5152L185.485 18.7121C185.809 18.6995 186.128 18.633 186.432 18.5152L187 21.0758C186.383 21.2726 185.748 21.4045 185.106 21.4697C184.158 21.4697 183.59 21.4697 182.832 21.0758C182.264 20.8788 181.695 20.4848 181.506 19.8939C181.127 19.303 180.938 18.7121 180.938 17.9242V5.31818ZM10.7998 0H14.2101V26H10.7998V0Z" fill="white"></path><path d="M25.0091 11.2273V14.7727H0V11.2273H25.0091Z" fill="white"></path><path d="M20.6518 1.96973L23.1149 4.53033L14.2101 13.7879L11.7471 11.2273L20.6518 1.96973Z" fill="white"></path></g><defs><clipPath id="clip0_2476_1615"><rect width="187" height="26" fill="white"></rect></clipPath></defs></svg>