<svg xmlns="http://www.w3.org/2000/svg" width="82" height="25" viewBox="0 0 82 25" fill="none"><g clip-path="url(#clip0_2476_1623)"><mask id="mask0_2476_1623" style="mask-type:luminance" maskUnits="userSpaceOnUse" x="0" y="0" width="82" height="25"><path d="M82 0H0V25H82V0Z" fill="white"></path></mask><g mask="url(#mask0_2476_1623)"><path d="M2.60409 4.54541V24.75H0V4.54541H2.60409Z" fill="white"></path><path d="M7.27844 23.5852C6.46781 22.8079 6.0625 21.6796 6.0625 20.1987V8.98633C6.0625 7.48746 6.48187 6.33178 7.32179 5.51701C8.16053 4.70338 9.32493 4.29541 10.8126 4.29541H11.0118C12.4421 4.29541 13.5913 4.70678 14.4593 5.53065C15.3273 6.35451 15.7608 7.50565 15.7608 8.98633V10.9011H13.1578V9.09768C13.1578 8.17268 12.9482 7.50678 12.5288 7.09883C12.1094 6.69201 11.594 6.4886 10.9837 6.4886H10.8408C10.1918 6.4886 9.66816 6.69201 9.26753 7.09883C8.8669 7.50565 8.66659 8.17156 8.66659 9.09768V20.0875C8.66659 21.0125 8.85753 21.6692 9.23824 22.0579C9.62013 22.4465 10.1824 22.6408 10.9263 22.6408H13.1578V16.5625H11.2121V14.3977H15.6752V24.75H10.8689C9.28627 24.75 8.08907 24.3613 7.27844 23.5852Z" fill="white"></path><path d="M21.6254 24.75H19.251V4.54541H23.3415L27.6899 22.0579V4.54541H30.0644V24.75H25.9737L21.6254 7.23746V24.75Z" fill="white"></path><path d="M36.7398 0V20.3613H34.1357V0H36.7398Z" fill="white"></path><path d="M37.8918 22.8181V24.7499H32.9824V22.8181H37.8918Z" fill="white"></path><path d="M45.6977 24.75H43.0653V6.7386H39.8896V4.54541H48.844V6.7386H45.6977V24.75Z" fill="white"></path><path d="M54.5689 4.54541V24.75H51.9648V4.54541H54.5689Z" fill="white"></path><path d="M59.2863 5.51701C60.145 4.70338 61.3082 4.29541 62.7772 4.29541H63.0057C64.4359 4.29541 65.5899 4.70223 66.4672 5.51701C67.3446 6.33065 67.7827 7.48746 67.7827 8.98633V20.3102C67.7827 21.7908 67.3446 22.942 66.4672 23.7658C65.5899 24.5897 64.4359 25.0012 63.0057 25.0012H62.7772C61.3082 25.0012 60.145 24.5897 59.2863 23.7658C58.4276 22.942 57.999 21.7908 57.999 20.3102V8.98633C57.999 7.48746 58.4289 6.33178 59.2863 5.51701ZM64.5226 7.09883C64.0834 6.69201 63.5691 6.4886 62.9776 6.4886H62.8054C62.1762 6.4886 61.6515 6.69201 61.2322 7.09883C60.8127 7.50565 60.6031 8.17156 60.6031 9.09768V20.1987C60.6031 21.1238 60.8127 21.7897 61.2322 22.1965C61.6515 22.6034 62.1762 22.8068 62.8054 22.8068H62.9776C63.5691 22.8068 64.0834 22.6034 64.5226 22.1965C64.9608 21.7897 65.181 21.1238 65.181 20.1987V9.09768C65.181 8.17268 64.9608 7.50565 64.5226 7.09883Z" fill="white"></path><path d="M73.5602 24.75H71.1855V4.54541H75.2774L79.6258 22.0579V4.54541H82.0002V24.75H77.9095L73.5602 7.23746V24.75Z" fill="white"></path></g></g><defs><clipPath id="clip0_2476_1623"><rect width="82" height="25" fill="white"></rect></clipPath></defs></svg>