<!DOCTYPE svg PUBLIC "-//W3C//DTD SVG 1.1//EN" "http://www.w3.org/Graphics/SVG/1.1/DTD/svg11.dtd">
<!-- Uploaded to: SVG Repo, www.svgrepo.com, Transformed by: SVG Repo Mixer Tools -->
<svg width="64px" height="64px" viewBox="0 0 24 24" xmlns="http://www.w3.org/2000/svg" id="launch" class="icon glyph" fill="#000000">
<g id="SVGRepo_bgCarrier" stroke-width="0"/>
<g id="SVGRepo_tracerCarrier" stroke-linecap="round" stroke-linejoin="round"/>
<g id="SVGRepo_iconCarrier">
<path d="M20,20.76l-.81-3.25a3,3,0,0,0-1.25-1.77l-1-.66.3-1.92a11,11,0,0,0-3.1-9.45L13.41,3a2,2,0,0,0-2.82,0l-.71.71a11,11,0,0,0-3.1,9.45l.3,1.92-1,.66a3.05,3.05,0,0,0-1.24,1.77L4,20.76a1,1,0,0,0,.18.86A1,1,0,0,0,5,22H19a1,1,0,0,0,.79-.38A1,1,0,0,0,20,20.76ZM6.78,18a1,1,0,0,1,.41-.59l.22-.14L7.83,20H6.28ZM13,13a1,1,0,0,1-2,0V10a1,1,0,0,1,2,0Zm3.17,7,.42-2.74.21.14a1,1,0,0,1,.42.59l.5,2Z" style="fill:#ffffff"/>
</g>
</svg>