<svg xmlns="http://www.w3.org/2000/svg" width="137" height="28" viewBox="0 0 137 28" fill="none"><path d="M3.37485 3.69578C5.24019 1.91484 7.77306 0.875345 10.3402 0.746045C11.2188 0.746045 12.1 0.751316 12.9786 0.743408C12.9337 1.68532 12.9786 2.62987 12.9522 3.57175C12.8282 5.67719 12.0499 7.73512 10.7386 9.38676C9.03418 11.6083 6.42748 13.099 3.65981 13.4842C2.45144 13.6795 1.22456 13.5554 0.00827334 13.5898C0.0293617 12.5528 -0.0365846 11.5133 0.045222 10.4791C0.282689 7.91455 1.4937 5.45821 3.37485 3.69578Z" fill="white"></path><path d="M13.792 0.743408C14.7339 0.753952 15.6758 0.738136 16.6203 0.74868C18.9712 0.914884 21.2903 1.81722 23.0605 3.38181C25.013 5.05717 26.3507 7.45284 26.6938 10.0121C26.8439 11.1993 26.7492 12.3998 26.8072 13.5923C25.9838 13.5898 25.1635 13.5871 24.3401 13.5923C22.3166 13.537 20.3273 12.8826 18.6334 11.7798C17.8525 11.2204 17.0504 10.6532 16.4647 9.87755C15.1798 8.44225 14.3065 6.64023 13.9767 4.74058C13.7286 3.42136 13.8289 2.07581 13.792 0.743408Z" fill="white"></path><path d="M0.00974783 14.3469C0.846132 14.3944 1.68515 14.3073 2.51886 14.3997C6.08859 14.4761 9.55288 16.4813 11.4024 19.534C12.463 21.2436 13.0328 23.27 12.959 25.2832C12.9563 25.9426 12.9669 26.5995 12.9484 27.2566C11.624 27.2169 10.2863 27.325 8.97498 27.069C6.06223 26.5784 3.38428 24.8449 1.77219 22.3703C0.550627 20.5709 -0.0588351 18.373 0.00447454 16.2017C0.00447454 15.5816 0.00447574 14.9642 0.00974783 14.3469Z" fill="white"></path><path d="M22.3504 14.6262C23.7859 14.3069 25.2657 14.3597 26.7249 14.3597L26.7884 14.4231C26.7566 15.8029 26.8647 17.1986 26.5877 18.5627C26.0046 21.6232 23.9785 24.3568 21.2529 25.8579C19.5565 26.8025 17.6093 27.2667 15.6701 27.2457C15.0501 27.2484 14.4274 27.2349 13.8073 27.2538C13.8073 26.1113 13.7599 24.9635 13.8892 23.8264C14.1899 21.0744 15.6779 18.5125 17.8177 16.7818C19.1421 15.737 20.6988 14.9798 22.3504 14.6262Z" fill="white"></path><path d="M37.6179 22.1463C37.6179 22.6108 37.457 23.0038 37.1358 23.3253C36.8319 23.6291 36.4477 23.781 35.9835 23.781C35.5367 23.781 35.1614 23.6291 34.858 23.3253C34.5542 23.0038 34.4023 22.6108 34.4023 22.1463V5.58555C34.4023 5.12107 34.5542 4.73696 34.858 4.43328C35.1793 4.11173 35.5725 3.95093 36.0371 3.95093C36.5013 3.95093 36.8766 4.11173 37.1625 4.43328C37.4659 4.73696 37.6179 5.12107 37.6179 5.58555V22.1463Z" fill="white"></path><path d="M50.5257 9.44434C50.9898 9.44434 51.3741 9.60509 51.6779 9.92669C51.9812 10.2304 52.1332 10.6144 52.1332 11.079V17.8855C52.1332 19.7792 51.6064 21.2798 50.5524 22.3874C49.498 23.495 47.9799 24.049 45.9966 24.049C44.0138 24.049 42.4951 23.495 41.4411 22.3874C40.405 21.2798 39.8867 19.7792 39.8867 17.8855V11.079C39.8867 10.6144 40.0386 10.2304 40.3425 9.92669C40.6463 9.60509 41.0301 9.44434 41.4947 9.44434C41.9594 9.44434 42.3432 9.60509 42.647 9.92669C42.9508 10.2304 43.1027 10.6144 43.1027 11.079V17.8855C43.1027 18.9752 43.3439 19.7881 43.826 20.324C44.3086 20.8422 45.032 21.1011 45.9966 21.1011C46.9795 21.1011 47.7117 20.8422 48.1943 20.324C48.6764 19.7881 48.9176 18.9752 48.9176 17.8855V11.079C48.9176 10.6144 49.0696 10.2304 49.3734 9.92669C49.6767 9.60509 50.061 9.44434 50.5257 9.44434Z" fill="white"></path><path d="M61.8046 9.17639C63.2338 9.17639 64.2878 9.52475 64.9669 10.2215C65.6456 10.9004 66.0924 11.7847 66.3064 12.8744L65.8511 12.6332L66.0655 12.2045C66.2796 11.7936 66.6102 11.3559 67.057 10.8915C67.5033 10.4091 68.0394 10.0071 68.6645 9.68554C69.3079 9.34608 70.0223 9.17639 70.8087 9.17639C72.095 9.17639 73.0685 9.45331 73.7293 10.0071C74.4084 10.5609 74.8726 11.3023 75.1228 12.2313C75.373 13.1424 75.4981 14.1607 75.4981 15.2862V22.1463C75.4981 22.6108 75.3462 23.0038 75.0424 23.3253C74.7386 23.6291 74.3548 23.781 73.8901 23.781C73.426 23.781 73.0417 23.6291 72.7378 23.3253C72.4341 23.0038 72.2822 22.6108 72.2822 22.1463V15.2862C72.2822 14.6966 72.2111 14.1696 72.0681 13.7051C71.9252 13.2228 71.666 12.8387 71.2908 12.5529C70.9159 12.267 70.3798 12.1241 69.6832 12.1241C69.0041 12.1241 68.4237 12.267 67.9412 12.5529C67.4586 12.8387 67.0927 13.2228 66.8425 13.7051C66.6102 14.1696 66.4941 14.6966 66.4941 15.2862V22.1463C66.4941 22.6108 66.3422 23.0038 66.0388 23.3253C65.7349 23.6291 65.3507 23.781 64.8865 23.781C64.4218 23.781 64.0376 23.6291 63.7342 23.3253C63.4304 23.0038 63.2786 22.6108 63.2786 22.1463V15.2862C63.2786 14.6966 63.2071 14.1696 63.0641 13.7051C62.9211 13.2228 62.662 12.8387 62.2871 12.5529C61.9118 12.267 61.3756 12.1241 60.6791 12.1241C60.0005 12.1241 59.4197 12.267 58.9371 12.5529C58.455 12.8387 58.0886 13.2228 57.8384 13.7051C57.6066 14.1696 57.4904 14.6966 57.4904 15.2862V22.1463C57.4904 22.6108 57.3385 23.0038 57.0347 23.3253C56.7309 23.6291 56.347 23.781 55.8824 23.781C55.4178 23.781 55.0339 23.6291 54.7302 23.3253C54.4263 23.0038 54.2744 22.6108 54.2744 22.1463V11.079C54.2744 10.6145 54.4263 10.2304 54.7302 9.92672C55.0339 9.60512 55.4178 9.44438 55.8824 9.44438C56.347 9.44438 56.7309 9.60512 57.0347 9.92672C57.3385 10.2304 57.4904 10.6145 57.4904 11.079V12.2313L57.0883 12.1509C57.2491 11.8472 57.4725 11.5256 57.758 11.1862C58.044 10.8289 58.3924 10.4983 58.8035 10.1947C59.2141 9.89102 59.6698 9.64984 60.1698 9.47114C60.6702 9.27464 61.2152 9.17639 61.8046 9.17639Z" fill="white"></path><path d="M80.667 22.1463C80.667 22.6108 80.5151 23.0039 80.2113 23.3253C79.908 23.6291 79.5237 23.7811 79.059 23.7811C78.5949 23.7811 78.2106 23.6291 77.9068 23.3253C77.6034 23.0039 77.4515 22.6108 77.4515 22.1463V11.079C77.4515 10.6145 77.6034 10.2304 77.9068 9.92677C78.2106 9.60517 78.5949 9.44441 79.059 9.44441C79.5237 9.44441 79.908 9.60517 80.2113 9.92677C80.5151 10.2304 80.667 10.6145 80.667 11.079V22.1463ZM79.0322 7.70257C78.4251 7.70257 77.9961 7.60432 77.7459 7.40778C77.4962 7.21128 77.3711 6.86293 77.3711 6.3627V5.85354C77.3711 5.33549 77.5052 4.98709 77.7728 4.80846C78.0587 4.61197 78.4877 4.51367 79.059 4.51367C79.6846 4.51367 80.1224 4.61197 80.3721 4.80846C80.6223 5.00496 80.7475 5.35332 80.7475 5.85354V6.3627C80.7475 6.8808 80.6134 7.23809 80.3453 7.43459C80.0777 7.61326 79.6399 7.70257 79.0322 7.70257Z" fill="white"></path><path d="M90.2949 9.17639C91.6171 9.17639 92.6175 9.45331 93.2962 10.0071C93.9935 10.5609 94.4663 11.3023 94.7164 12.2313C94.9842 13.1424 95.1186 14.1607 95.1186 15.2862V22.1463C95.1186 22.6108 94.9666 23.0038 94.6625 23.3253C94.3594 23.6291 93.975 23.781 93.511 23.781C93.0461 23.781 92.6626 23.6291 92.3585 23.3253C92.0545 23.0038 91.9025 22.6108 91.9025 22.1463V15.2862C91.9025 14.6966 91.823 14.1696 91.6621 13.7051C91.519 13.2228 91.2512 12.8387 90.8579 12.5529C90.4646 12.267 89.9017 12.1241 89.1699 12.1241C88.4549 12.1241 87.8476 12.267 87.3472 12.5529C86.8651 12.8387 86.4898 13.2228 86.2217 13.7051C85.9715 14.1696 85.8465 14.6966 85.8465 15.2862V22.1463C85.8465 22.6108 85.695 23.0038 85.3911 23.3253C85.0873 23.6291 84.7031 23.781 84.2389 23.781C83.7742 23.781 83.39 23.6291 83.0866 23.3253C82.7828 23.0038 82.6309 22.6108 82.6309 22.1463V11.079C82.6309 10.6145 82.7828 10.2304 83.0866 9.92672C83.39 9.60512 83.7742 9.44438 84.2389 9.44438C84.7031 9.44438 85.0873 9.60512 85.3911 9.92672C85.695 10.2304 85.8465 10.6145 85.8465 11.079V12.2313L85.4448 12.1509C85.6056 11.8472 85.8375 11.5256 86.1413 11.1862C86.4451 10.8289 86.8025 10.4983 87.2131 10.1947C87.6242 9.89102 88.0889 9.64984 88.6069 9.47114C89.1248 9.27464 89.6878 9.17639 90.2949 9.17639Z" fill="white"></path><path d="M111.03 16.626C111.03 18.0909 110.699 19.3862 110.038 20.5117C109.395 21.6193 108.519 22.4858 107.412 23.1108C106.322 23.7363 105.099 24.0491 103.741 24.0491C102.383 24.0491 101.15 23.7363 100.043 23.1108C98.9532 22.4858 98.0774 21.6193 97.4163 20.5117C96.7738 19.3862 96.4521 18.0909 96.4521 16.626C96.4521 15.1611 96.7738 13.8748 97.4163 12.7673C98.0774 11.6417 98.9532 10.7664 100.043 10.1411C101.15 9.49794 102.383 9.17639 103.741 9.17639C105.099 9.17639 106.322 9.49794 107.412 10.1411C108.519 10.7664 109.395 11.6417 110.038 12.7673C110.699 13.8748 111.03 15.1611 111.03 16.626ZM107.814 16.626C107.814 15.7149 107.627 14.9289 107.251 14.2679C106.894 13.589 106.403 13.062 105.777 12.6868C105.17 12.3117 104.491 12.1241 103.741 12.1241C102.99 12.1241 102.303 12.3117 101.678 12.6868C101.07 13.062 100.578 13.589 100.204 14.2679C99.8458 14.9289 99.6673 15.7149 99.6673 16.626C99.6673 17.5193 99.8458 18.3053 100.204 18.9842C100.578 19.6452 101.07 20.1633 101.678 20.5385C102.303 20.9136 102.99 21.1011 103.741 21.1011C104.491 21.1011 105.17 20.9136 105.777 20.5385C106.403 20.1633 106.894 19.6452 107.251 18.9842C107.627 18.3053 107.814 17.5193 107.814 16.626Z" fill="white"></path><path d="M123.015 9.44434C123.48 9.44434 123.863 9.60509 124.167 9.92669C124.47 10.2304 124.622 10.6144 124.622 11.079V17.8855C124.622 19.7792 124.096 21.2798 123.041 22.3874C121.988 23.495 120.47 24.049 118.486 24.049C116.503 24.049 114.985 23.495 113.931 22.3874C112.895 21.2798 112.376 19.7792 112.376 17.8855V11.079C112.376 10.6144 112.528 10.2304 112.832 9.92669C113.136 9.60509 113.52 9.44434 113.984 9.44434C114.449 9.44434 114.833 9.60509 115.137 9.92669C115.44 10.2304 115.592 10.6144 115.592 11.079V17.8855C115.592 18.9752 115.833 19.7881 116.316 20.324C116.798 20.8422 117.521 21.1011 118.486 21.1011C119.468 21.1011 120.201 20.8422 120.683 20.324C121.166 19.7881 121.407 18.9752 121.407 17.8855V11.079C121.407 10.6144 121.559 10.2304 121.862 9.92669C122.166 9.60509 122.551 9.44434 123.015 9.44434Z" fill="white"></path><path d="M125.933 21.5566C125.754 21.3065 125.674 20.9849 125.692 20.592C125.71 20.1989 125.942 19.8595 126.388 19.5736C126.674 19.395 126.978 19.3235 127.3 19.3593C127.62 19.3771 127.933 19.5379 128.237 19.8416C128.756 20.3597 129.301 20.7617 129.872 21.0475C130.443 21.3333 131.158 21.4762 132.015 21.4762C132.284 21.4583 132.578 21.4226 132.9 21.3691C133.222 21.2976 133.498 21.1547 133.731 20.9403C133.981 20.708 134.106 20.3597 134.106 19.8952C134.106 19.5022 133.972 19.1895 133.703 18.9573C133.437 18.725 133.079 18.5285 132.632 18.3678C132.204 18.2069 131.721 18.0551 131.186 17.9122C130.631 17.7514 130.06 17.5727 129.47 17.3763C128.898 17.1797 128.372 16.9296 127.889 16.6259C127.407 16.3043 127.013 15.8845 126.71 15.3665C126.406 14.8483 126.254 14.1963 126.254 13.4103C126.254 12.5169 126.504 11.7578 127.004 11.1325C127.506 10.5072 128.148 10.0249 128.934 9.68542C129.738 9.34596 130.578 9.17627 131.452 9.17627C132.007 9.17627 132.587 9.24771 133.195 9.39064C133.802 9.51569 134.383 9.73005 134.936 10.0338C135.49 10.3196 135.955 10.7037 136.33 11.1861C136.526 11.454 136.643 11.7755 136.678 12.1508C136.714 12.526 136.545 12.8653 136.169 13.1691C135.901 13.3835 135.589 13.4817 135.232 13.4638C134.874 13.4281 134.579 13.3031 134.347 13.0887C134.044 12.6956 133.633 12.383 133.115 12.1508C132.614 11.9185 132.034 11.8024 131.373 11.8024C131.105 11.8024 130.81 11.8381 130.488 11.9096C130.184 11.9632 129.917 12.0971 129.685 12.3116C129.453 12.508 129.336 12.8296 129.336 13.2763C129.336 13.6871 129.47 14.0177 129.738 14.2678C130.007 14.5 130.363 14.6965 130.81 14.8573C131.274 15.0003 131.765 15.1432 132.284 15.2861C132.82 15.429 133.365 15.5987 133.918 15.7952C134.472 15.9918 134.981 16.2507 135.446 16.5723C135.91 16.8939 136.285 17.3137 136.571 17.8318C136.858 18.332 137 18.9751 137 19.7611C137 20.6723 136.732 21.4494 136.196 22.0925C135.66 22.7357 134.99 23.2269 134.186 23.5664C133.383 23.8881 132.561 24.0489 131.721 24.0489C130.667 24.0489 129.613 23.8702 128.559 23.5128C127.506 23.1375 126.63 22.4856 125.933 21.5566Z" fill="white"></path></svg>