<svg xmlns="http://www.w3.org/2000/svg" width="99" height="16" viewBox="0 0 99 16" fill="none"><g clip-path="url(#clip0_2476_1641)"><path d="M0 7.20554H21.8543C21.8543 3.04268 18.0905 2.00195 16.2086 2.00195H0V7.20554Z" fill="white"></path><path d="M21.8542 10.615H0C3.69375e-07 14.7779 3.7638 15.8186 5.64568 15.8186H21.8542V10.615Z" fill="white"></path><path d="M41.9695 1.73523V15.8185H39.0374V6.65831L35.1209 15.8185H32.9009L28.9635 6.65831V15.8185H26.0312V1.73523H29.3614L34.0108 12.2069L38.6603 1.73523H41.9695Z" fill="white"></path><path d="M44.1143 10.1891C44.1143 9.05923 44.3446 8.05714 44.8054 7.18281C45.2802 6.3085 45.9155 5.63594 46.7114 5.16515C47.5212 4.69438 48.4218 4.45898 49.4131 4.45898C50.2787 4.45898 51.0328 4.62711 51.6751 4.96339C52.3313 5.29966 52.8549 5.72338 53.2458 6.23452V4.64057H56.1989V15.8184H53.2458V14.1841C52.8688 14.7087 52.3453 15.1458 51.6751 15.4956C51.0187 15.8318 50.2578 16 49.3922 16C48.4147 16 47.5212 15.7578 46.7114 15.2736C45.9155 14.7894 45.2802 14.1101 44.8054 13.2358C44.3446 12.348 44.1143 11.3325 44.1143 10.1891ZM53.2458 10.2295C53.2458 9.54346 53.1062 8.95834 52.827 8.47411C52.5478 7.97642 52.1706 7.5998 51.696 7.34423C51.2214 7.0752 50.7115 6.94069 50.1671 6.94069C49.6225 6.94069 49.12 7.06848 48.6592 7.32405C48.1984 7.57962 47.8213 7.95625 47.5282 8.45394C47.249 8.93817 47.1092 9.51657 47.1092 10.1891C47.1092 10.8617 47.249 11.4535 47.5282 11.9647C47.8213 12.4623 48.1984 12.8457 48.6592 13.1147C49.1338 13.3837 49.6364 13.5183 50.1671 13.5183C50.7115 13.5183 51.2214 13.3905 51.696 13.1349C52.1706 12.8659 52.5478 12.4892 52.827 12.005C53.1062 11.5073 53.2458 10.9155 53.2458 10.2295Z" fill="white"></path><path d="M58.3086 10.1892C58.3086 9.05932 58.539 8.05722 58.9997 7.18289C59.4746 6.30858 60.1167 5.63603 60.9266 5.16524C61.7364 4.69447 62.637 4.45907 63.6283 4.45907C64.3824 4.45907 65.1015 4.62047 65.7856 4.9433C66.4697 5.25267 67.0143 5.66967 67.4192 6.19425V0.887817H70.3933V15.8185H67.4192V14.164C67.0561 14.7155 66.5465 15.1594 65.8903 15.4956C65.234 15.8319 64.4731 16 63.6074 16C62.63 16 61.7364 15.7579 60.9266 15.2737C60.1167 14.7895 59.4746 14.1102 58.9997 13.2359C58.539 12.3481 58.3086 11.3325 58.3086 10.1892ZM67.4401 10.2296C67.4401 9.54355 67.3006 8.95843 67.0212 8.4742C66.7419 7.97651 66.365 7.59989 65.8903 7.34432C65.4155 7.07528 64.9059 6.94078 64.3613 6.94078C63.8169 6.94078 63.3141 7.06856 62.8533 7.32414C62.3926 7.57971 62.0156 7.95633 61.7225 8.45402C61.4433 8.93825 61.3036 9.51665 61.3036 10.1892C61.3036 10.8618 61.4433 11.4536 61.7225 11.9647C62.0156 12.4624 62.3926 12.8458 62.8533 13.1148C63.3282 13.3838 63.8308 13.5183 64.3613 13.5183C64.9059 13.5183 65.4155 13.3906 65.8903 13.135C66.365 12.866 66.7419 12.4893 67.0212 12.0051C67.3006 11.5074 67.4401 10.9156 67.4401 10.2296Z" fill="white"></path><path d="M76.1891 6.37583C76.566 5.78399 77.0547 5.31992 77.655 4.98366C78.2694 4.64737 78.9676 4.47925 79.7496 4.47925V7.44519H78.9746C78.0531 7.44519 77.3549 7.65368 76.8802 8.07066C76.4195 8.48766 76.1891 9.214 76.1891 10.2497V15.8185H73.2568V4.64065H76.1891V6.37583Z" fill="white"></path><path d="M83.2114 3.30896C82.6947 3.30896 82.2619 3.15428 81.9129 2.84489C81.5778 2.52206 81.4102 2.12526 81.4102 1.65448C81.4102 1.18369 81.5778 0.793611 81.9129 0.484236C82.2619 0.161413 82.6947 0 83.2114 0C83.728 0 84.1538 0.161413 84.489 0.484236C84.838 0.793611 85.0126 1.18369 85.0126 1.65448C85.0126 2.12526 84.838 2.52206 84.489 2.84489C84.1538 3.15428 83.728 3.30896 83.2114 3.30896ZM84.6566 4.6406V15.8184H81.7244V4.6406H84.6566Z" fill="white"></path><path d="M86.7998 10.1892C86.7998 9.05932 87.0302 8.05722 87.491 7.18289C87.9658 6.30858 88.6081 5.63603 89.4178 5.16524C90.2276 4.69447 91.1282 4.45907 92.1195 4.45907C92.8736 4.45907 93.5927 4.62047 94.2768 4.9433C94.9609 5.25267 95.5055 5.66967 95.9104 6.19425V0.887817H98.8845V15.8185H95.9104V14.164C95.5473 14.7155 95.0377 15.1594 94.3815 15.4956C93.7254 15.8319 92.9643 16 92.0986 16C91.1212 16 90.2276 15.7579 89.4178 15.2737C88.6081 14.7895 87.9658 14.1102 87.491 13.2359C87.0302 12.3481 86.7998 11.3325 86.7998 10.1892ZM95.9313 10.2296C95.9313 9.54355 95.7918 8.95843 95.5125 8.4742C95.2333 7.97651 94.8562 7.59989 94.3815 7.34432C93.9067 7.07528 93.3971 6.94078 92.8527 6.94078C92.3081 6.94078 91.8055 7.06856 91.3447 7.32414C90.884 7.57971 90.5068 7.95633 90.2137 8.45402C89.9345 8.93825 89.7948 9.51665 89.7948 10.1892C89.7948 10.8618 89.9345 11.4536 90.2137 11.9647C90.5068 12.4624 90.884 12.8458 91.3447 13.1148C91.8194 13.3838 92.322 13.5183 92.8527 13.5183C93.3971 13.5183 93.9067 13.3906 94.3815 13.135C94.8562 12.866 95.2333 12.4893 95.5125 12.0051C95.7918 11.5074 95.9313 10.9156 95.9313 10.2296Z" fill="white"></path></g><defs><clipPath id="clip0_2476_1641"><rect width="99" height="16" fill="white"></rect></clipPath></defs></svg>