<svg xmlns="http://www.w3.org/2000/svg" width="96" height="25" viewBox="0 0 96 25" fill="none"><path fill-rule="evenodd" clip-rule="evenodd" d="M0 3.07018C0 1.37457 1.38011 0 3.08257 0H20.6972C22.3997 0 23.7798 1.37457 23.7798 3.07018V6.05434C23.3731 6.18579 22.9918 6.41447 22.6731 6.74009L19.7046 9.77333C19.4622 10.021 19.341 10.1448 19.1971 10.2233C19.0582 10.299 18.9043 10.344 18.746 10.3552C18.5821 10.3667 18.4124 10.3279 18.0729 10.2504L9.9024 8.38518C9.55693 8.30632 9.38413 8.26689 9.21706 8.27961C9.06914 8.29088 8.92509 8.33175 8.79364 8.39974C8.64511 8.47653 8.51978 8.60057 8.26903 8.8486L7.86293 9.25035C7.19894 9.90719 6.86699 10.2356 6.80688 10.5717C6.75439 10.8652 6.82644 11.1671 7.00606 11.4064C7.2118 11.6805 7.65719 11.8274 8.54796 12.1211L15.1522 14.2989L11.4879 17.9239C11.2691 18.1403 11.1598 18.2485 11.031 18.3209C10.9169 18.385 10.7921 18.4283 10.6625 18.4487C10.5162 18.4718 10.3625 18.4549 10.0551 18.4211L8.24402 18.2221C7.93656 18.1882 7.78283 18.1714 7.63658 18.1944C7.50698 18.2149 7.38218 18.2582 7.26808 18.3223C7.13927 18.3947 7.02993 18.5029 6.8112 18.7193L6.59485 18.9333C6.07667 19.4459 5.8176 19.7022 5.74256 19.987C5.67673 20.2368 5.70328 20.5017 5.81734 20.7339C5.94738 20.9986 6.25224 21.1997 6.86197 21.6018L9.43878 23.3013C9.54764 23.373 9.6022 23.409 9.65161 23.4507C9.69547 23.4878 9.73634 23.5282 9.77377 23.5716C9.80072 23.6028 9.82529 23.6361 9.85845 23.6842H3.08257C1.38011 23.6842 0 22.3096 0 20.614V3.07018ZM23.5504 13.6227L23.7798 13.385V18.0807L23.1101 15.21C23.0325 14.877 22.9936 14.7105 23.0051 14.5489C23.0152 14.4059 23.0539 14.2663 23.119 14.1382C23.1925 13.9934 23.3118 13.8699 23.5504 13.6227ZM19.0249 18.13L20.8943 23.678C20.8292 23.6821 20.7634 23.6842 20.6972 23.6842H14.9154L14.858 23.1725C14.8238 22.8683 14.8067 22.7163 14.8301 22.5715C14.8507 22.4434 14.8945 22.3199 14.9593 22.207C15.0325 22.0796 15.1418 21.9714 15.3605 21.7551L19.0249 18.13ZM5.21394 1.89474C5.21394 1.77362 5.11535 1.67544 4.99376 1.67544C4.87218 1.67544 4.77358 1.77362 4.77358 1.89474V2.36842C4.77358 2.48954 4.87218 2.58772 4.99376 2.58772C5.11535 2.58772 5.21394 2.48954 5.21394 2.36842V1.89474ZM3.46106 2.42649C3.37508 2.34085 3.23567 2.34085 3.14968 2.42649C3.06369 2.51213 3.06369 2.65098 3.14968 2.73662L3.48598 3.07157C3.57196 3.15721 3.71137 3.15721 3.79736 3.07157C3.88335 2.98593 3.88335 2.84707 3.79736 2.76143L3.46106 2.42649ZM6.83775 2.73662C6.92376 2.65098 6.92376 2.51213 6.83775 2.42649C6.75179 2.34085 6.61237 2.34085 6.52637 2.42649L6.19006 2.76143C6.1041 2.84707 6.1041 2.98593 6.19006 3.07157C6.27607 3.15721 6.41549 3.15721 6.50149 3.07157L6.83775 2.73662ZM4.02495 4.26316C4.02495 3.73025 4.45872 3.29825 4.99376 3.29825C5.52881 3.29825 5.96257 3.73025 5.96257 4.26316C5.96257 4.38427 6.06117 4.48246 6.18275 4.48246C6.30434 4.48246 6.40294 4.38427 6.40294 4.26316C6.40294 3.48802 5.77202 2.85965 4.99376 2.85965C4.2155 2.85965 3.58459 3.48802 3.58459 4.26316C3.58459 4.38427 3.68317 4.48246 3.80477 4.48246C3.92637 4.48246 4.02495 4.38427 4.02495 4.26316ZM2.61578 4.04386C2.49418 4.04386 2.3956 4.14204 2.3956 4.26316C2.3956 4.38427 2.49418 4.48246 2.61578 4.48246H3.09138C3.21298 4.48246 3.31156 4.38427 3.31156 4.26316C3.31156 4.14204 3.21298 4.04386 3.09138 4.04386H2.61578ZM6.89615 4.04386C6.77456 4.04386 6.67596 4.14204 6.67596 4.26316C6.67596 4.38427 6.77456 4.48246 6.89615 4.48246H7.37174C7.49333 4.48246 7.59193 4.38427 7.59193 4.26316C7.59193 4.14204 7.49333 4.04386 7.37174 4.04386H6.89615ZM2.73069 5.50785C2.96054 5.40382 3.26031 5.40382 3.49015 5.50785C3.83578 5.66434 4.26843 5.66434 4.61408 5.50785C4.8439 5.40382 5.14366 5.40382 5.37353 5.50785C5.71913 5.66434 6.15179 5.66434 6.49744 5.50785C6.72727 5.40382 7.02702 5.40382 7.2569 5.50785C7.36756 5.55798 7.49813 5.50921 7.54842 5.39899C7.59875 5.28873 7.54978 5.15868 7.43912 5.1086C7.09347 4.95211 6.66081 4.95211 6.31521 5.1086C6.08534 5.21263 5.78559 5.21263 5.55576 5.1086C5.21011 4.95211 4.77745 4.95211 4.43185 5.1086C4.20199 5.21263 3.90222 5.21263 3.67237 5.1086C3.32675 4.95211 2.8941 4.95211 2.54847 5.1086C2.43777 5.15868 2.38881 5.28873 2.43914 5.39899C2.48946 5.50921 2.61999 5.55798 2.73069 5.50785ZM4.61403 6.3368C4.8439 6.23276 5.14366 6.23276 5.37349 6.3368C5.71913 6.49329 6.15179 6.49329 6.49739 6.3368C6.6081 6.28671 6.65707 6.15667 6.60674 6.0464C6.5564 5.93618 6.42588 5.88741 6.31517 5.93754C6.08534 6.04158 5.78559 6.04158 5.55571 5.93754C5.21011 5.78105 4.77745 5.78105 4.43181 5.93754C4.20198 6.04158 3.90221 6.04158 3.67237 5.93754C3.56166 5.88741 3.43113 5.93618 3.38081 6.0464C3.33049 6.15667 3.37944 6.28671 3.49014 6.3368C3.83577 6.49329 4.26842 6.49329 4.61403 6.3368Z" fill="white"></path><path d="M39.2983 7.7544L38.7523 10.8421H35.4407L33.7849 20.1755H29.8745L31.5302 10.8421H28.2539L28.8 7.7544H39.2983ZM43.5119 12.1053C44.0169 11.5322 44.5805 11.076 45.2027 10.7369C45.8369 10.386 46.4653 10.2105 47.0875 10.2105L46.3653 14.3684H45.2556C44.5158 14.3684 43.9464 14.4971 43.5471 14.7544C43.1596 15.0117 42.9072 15.4679 42.7897 16.1228L42.0675 20.1755H38.1571L39.9185 10.2807H43.829L43.5119 12.1053ZM50.2546 9.49124C49.6443 9.49124 49.1625 9.34506 48.8102 9.05264C48.4698 8.76023 48.2994 8.38014 48.2994 7.91229C48.2994 7.50295 48.4113 7.12282 48.6341 6.77194C48.8574 6.42107 49.1687 6.1462 49.5677 5.94738C49.979 5.73686 50.4308 5.63159 50.924 5.63159C51.5229 5.63159 51.9928 5.78365 52.3332 6.08773C52.6855 6.38014 52.8616 6.76611 52.8616 7.24563C52.8616 7.65497 52.7502 8.02927 52.5269 8.36843C52.3041 8.7076 51.9928 8.98247 51.5934 9.19299C51.1944 9.39181 50.7479 9.49124 50.2546 9.49124ZM52.0513 10.2807L50.2899 20.1755H46.3794L48.1409 10.2807H52.0513ZM57.4815 11.6316C57.8105 11.1755 58.227 10.8187 58.7321 10.5614C59.2487 10.2924 59.83 10.1579 60.476 10.1579C61.4743 10.1579 62.2784 10.4912 62.8892 11.1579C63.5 11.8246 63.8052 12.7486 63.8052 13.9298C63.8052 14.3743 63.7642 14.807 63.6819 15.2281C63.4938 16.269 63.1534 17.1755 62.6602 17.9474C62.167 18.7076 61.5738 19.2924 60.8811 19.7018C60.1884 20.0994 59.4543 20.2983 58.6793 20.2983C58.0333 20.2983 57.4991 20.1696 57.0764 19.9123C56.6655 19.6433 56.3775 19.2807 56.2132 18.8246L55.1387 24.9123H51.2283L53.8176 10.2807H57.7281L57.4815 11.6316ZM59.7186 15.2281C59.7419 15.1228 59.7538 14.9825 59.7538 14.807C59.7538 14.4094 59.6481 14.1053 59.4367 13.8947C59.2253 13.6725 58.9378 13.5614 58.5736 13.5614C58.1509 13.5614 57.7752 13.7076 57.4463 14C57.1292 14.2924 56.9236 14.7018 56.8298 15.2281C56.8064 15.3333 56.7945 15.4737 56.7945 15.6491C56.7945 16.0468 56.9002 16.3567 57.1116 16.579C57.323 16.7895 57.6105 16.8947 57.9747 16.8947C58.3975 16.8947 58.7674 16.7486 59.0844 16.4562C59.4134 16.1637 59.6248 15.7544 59.7186 15.2281ZM70.2464 7.193L67.9389 20.1755H64.0284L66.336 7.193H70.2464ZM70.0575 15.2281C70.2455 14.1872 70.5859 13.2865 71.0791 12.5263C71.5724 11.7544 72.1655 11.1696 72.8582 10.7719C73.5509 10.3626 74.285 10.1579 75.0601 10.1579C75.7061 10.1579 76.2403 10.2924 76.663 10.5614C77.0858 10.8187 77.3795 11.1755 77.5437 11.6316L77.7903 10.2807H81.6832L79.9217 20.1755H76.0289L76.2755 18.8246C75.9465 19.2807 75.5238 19.6433 75.0072 19.9123C74.4907 20.1696 73.9094 20.2983 73.2634 20.2983C72.2651 20.2983 71.461 19.9649 70.8502 19.2983C70.2394 18.6316 69.9342 17.7076 69.9342 16.5263C69.9342 16.0819 69.9752 15.6491 70.0575 15.2281ZM76.9096 15.2281C76.9329 15.1228 76.9448 14.9825 76.9448 14.807C76.9448 14.4094 76.8392 14.1053 76.6278 13.8947C76.4164 13.6725 76.1288 13.5614 75.7647 13.5614C75.3419 13.5614 74.9663 13.7076 74.6373 14C74.3203 14.2924 74.1146 14.7018 74.0208 15.2281C73.9975 15.3333 73.9856 15.4737 73.9856 15.6491C73.9856 16.0468 74.0913 16.3567 74.3026 16.579C74.514 16.7895 74.8016 16.8947 75.1658 16.8947C75.5885 16.8947 75.9584 16.7486 76.2755 16.4562C76.6044 16.1637 76.8158 15.7544 76.9096 15.2281ZM85.5531 9.49124C84.9423 9.49124 84.461 9.34506 84.1087 9.05264C83.7679 8.76023 83.5979 8.38014 83.5979 7.91229C83.5979 7.50295 83.7093 7.12282 83.9326 6.77194C84.1554 6.42107 84.4667 6.1462 84.8662 5.94738C85.277 5.73686 85.7293 5.63159 86.2225 5.63159C86.8214 5.63159 87.2908 5.78365 87.6317 6.08773C87.984 6.38014 88.1601 6.76611 88.1601 7.24563C88.1601 7.65497 88.0482 8.02927 87.8254 8.36843C87.6022 8.7076 87.2908 8.98247 86.8918 9.19299C86.4924 9.39181 86.0463 9.49124 85.5531 9.49124ZM87.3498 10.2807L85.5884 20.1755H81.6779L83.4394 10.2807H87.3498Z" fill="white"></path></svg>