<svg xmlns="http://www.w3.org/2000/svg" width="109" height="21" viewBox="0 0 109 21" fill="none"><path d="M42.089 4.23185H46.2622L46.9331 0.651375H42.759L42.089 4.23185ZM41.6565 6.53471H45.8306L43.1792 20.6727C42.9855 20.7439 42.3884 20.9958 41.563 20.9958C40.4496 20.9958 39.4283 20.5363 39.4283 18.9062C39.4283 18.5998 39.4617 18.2506 39.5363 17.8544C40.3652 13.4424 41.6565 6.53471 41.6565 6.53471ZM83.1014 6.21205C80.3231 6.21205 79.2184 7.93477 78.7003 8.98377H78.6516L78.8118 6.53797H74.6869C74.6596 7.07574 74.4814 8.77146 74.2166 10.2334C74.2166 10.2334 73.2643 15.3653 73.0839 16.3482C72.9469 17.0983 72.6957 18.2078 72.6957 18.8522C72.6957 20.2234 73.3526 20.9963 74.8181 20.9963C75.6401 20.9963 76.2324 20.7579 76.4479 20.6727L77.8275 13.3097C78.2099 11.2769 79.5977 9.94617 81.249 9.94617C82.5811 9.94617 83.2182 10.9751 83.2182 11.816C83.2182 12.5484 83.0448 13.3595 82.9104 14.077L82.3168 17.23C82.2461 17.6086 82.0951 18.3354 82.0951 18.9057C82.0951 20.2997 82.8375 20.9963 84.2469 20.9963C85.017 20.9963 85.5044 20.7923 85.8499 20.6727L87.0881 14.0723C87.3559 12.5805 87.4551 11.7951 87.4551 10.8452C87.4551 8.11263 85.9465 6.21205 83.1014 6.21205ZM64.5613 9.63049C62.2281 9.63049 60.936 12.1564 60.936 14.408C60.936 16.3067 61.7456 17.5783 63.5866 17.5783C65.6677 17.5783 67.2971 15.7029 67.2971 12.5019C67.2971 11.0371 66.5603 9.63049 64.5613 9.63049ZM63.3311 20.9963C58.8619 20.9963 56.7237 18.158 56.7237 14.5403C56.7237 9.57602 59.942 6.21205 64.9156 6.21205C69.2311 6.21205 71.5226 8.97911 71.5226 12.5326C71.5226 17.8581 68.0856 20.9963 63.3311 20.9963ZM47.701 17.5923C47.6062 18.1012 47.546 18.4578 47.546 18.8955C47.546 20.5162 48.5686 20.9963 49.6526 20.9963C50.5193 20.9963 51.0559 20.7449 51.2521 20.6727L53.2595 9.95595L56.5042 9.95548L57.1447 6.53471L53.9001 6.53517L54.0577 5.6929C54.3515 4.11265 55.0531 3.41798 56.2679 3.41798C57.0793 3.41798 57.7348 3.57069 57.9631 3.63402L58.5739 0.380397C58.314 0.311022 57.1144 0 55.3402 0C52.5114 0 50.6585 1.8191 50.1106 4.74913L49.7756 6.53471H47.6624L47.0214 9.95548H49.1359C49.1359 9.95548 48.3021 14.3866 47.701 17.5923ZM38.0931 6.21251C35.9984 6.21251 34.8463 7.75272 34.3958 8.98191H34.3475L34.5087 6.53471H30.3824C30.3459 7.38303 30.1782 8.81709 29.7576 11.072C29.3317 13.3567 28.9164 15.6353 28.4883 17.8535C28.415 18.2329 28.382 18.604 28.382 18.9178C28.382 20.08 28.9238 20.9949 30.5255 20.9949C31.3189 20.9949 31.8704 20.7765 32.1351 20.6727L33.3623 14.1184C33.8044 11.6112 34.6079 9.95315 36.9384 9.95315C37.9983 9.95315 39.0059 10.1929 39.2167 10.2581L39.9227 6.48722C39.7703 6.43135 39.1587 6.21251 38.0931 6.21251ZM98.6318 12.2653C98.8548 10.9691 98.1431 9.63049 96.534 9.63049C94.5692 9.63049 93.706 11.052 93.3209 12.2653H98.6318ZM100.494 17.5262C100.494 19.4924 98.6968 21 95.5136 21C91.1133 21 88.962 18.0974 88.962 14.544C88.962 11.0166 91.1731 6.21577 96.5691 6.21577C100.127 6.21577 102.787 8.08749 102.787 12.3738C102.787 13.4275 102.566 14.5733 102.47 15.0324H93.0132C92.9978 16.0604 93.8158 17.8432 97.1026 17.8432C98.5681 17.8432 100.227 17.2947 100.494 17.1551V17.5262ZM23.2174 12.2653C23.4409 10.9691 22.7287 9.63049 21.12 9.63049C19.1548 9.63049 18.292 11.052 17.9065 12.2653H23.2174ZM25.0799 17.5262C25.0799 19.4924 23.2824 21 20.0992 21C15.699 21 13.548 18.0974 13.548 14.544C13.548 11.0166 15.7587 6.21577 21.1547 6.21577C24.7128 6.21577 27.3731 8.08749 27.3731 12.3738C27.3731 13.4275 27.1514 14.5733 27.0561 15.0324H17.5988C17.5834 16.0604 18.4014 17.8432 21.6886 17.8432C23.1537 17.8432 24.8129 17.2947 25.0799 17.1551V17.5262ZM0 1.72412H4.19915V15.7815C4.19915 17.8954 5.1923 18.9742 6.78696 18.9742C6.94985 18.9742 7.04557 18.9523 7.07718 18.9439C6.3782 20.0646 5.47198 20.9837 3.39128 20.9837C1.18941 20.9837 0 19.3643 0 16.9353V1.72412Z" fill="white"></path><path d="M5.36906 14.3291V15.8046C5.36906 17.2298 6.0957 17.7401 6.88952 17.7401C7.70046 17.7401 8.13425 17.1577 8.53292 16.4956C9.20028 15.3865 17.3553 1.7244 17.3553 1.7244H12.9911L5.36906 14.3291Z" fill="white"></path><path d="M106.56 8.21507H107.023C107.45 8.21507 107.663 7.99623 107.663 7.72991C107.663 7.56788 107.586 7.33182 107.188 7.33182H106.725L106.56 8.21507ZM106.547 7.12137H107.229C107.639 7.12137 107.887 7.35464 107.887 7.69639C107.887 8.26442 107.388 8.38361 107.154 8.41155L107.612 9.60349H107.364L106.927 8.42552H106.52L106.299 9.60349H106.081L106.547 7.12137ZM106.73 10.334C107.855 10.334 108.635 9.47358 108.745 8.40736C108.855 7.34113 108.132 6.4807 107.126 6.4807C106.011 6.4807 105.221 7.34113 105.112 8.40736C105.002 9.47358 105.725 10.334 106.73 10.334ZM107.153 6.22369C108.287 6.22369 109.111 7.20425 108.988 8.40782C108.864 9.6114 107.945 10.5915 106.703 10.5915C105.569 10.5915 104.745 9.6114 104.869 8.40782C104.992 7.20425 105.941 6.22369 107.153 6.22369Z" fill="white"></path></svg>