<svg xmlns="http://www.w3.org/2000/svg" width="125" height="26" viewBox="0 0 125 26" fill="none"><path d="M101.69 1.18774V24.3583H105.081V1.18774H101.69Z" fill="white"></path><path fill-rule="evenodd" clip-rule="evenodd" d="M71.0272 24.7328C69.689 24.7328 68.5712 24.4212 67.6735 23.7977C67.5752 23.7296 67.4798 23.6586 67.3868 23.585V24.3588H64.3945V1.56226H67.8107V11.3282C68.6487 10.7894 69.6626 10.52 70.8526 10.52C72.1409 10.52 73.2629 10.8275 74.2189 11.4426C75.1748 12.0576 75.9144 12.9013 76.4379 13.9735C76.9699 15.0374 77.2358 16.2551 77.2358 17.6263C77.2358 18.9728 76.9741 20.1822 76.4504 21.2545C75.9353 22.3266 75.2119 23.1744 74.2813 23.7977C73.3503 24.4212 72.2657 24.7328 71.0272 24.7328ZM67.6859 15.4821C67.4863 16.097 67.3868 16.8117 67.3868 17.6263C67.3868 18.4408 67.4863 19.1558 67.6859 19.7707C67.8853 20.3859 68.2096 20.8636 68.6582 21.2046C69.1154 21.5454 69.7223 21.7156 70.4786 21.7156C71.21 21.7156 71.8085 21.5329 72.274 21.1672C72.7395 20.8015 73.0844 20.311 73.3087 19.6959C73.5333 19.0726 73.6452 18.3829 73.6452 17.6263C73.6452 16.8783 73.5291 16.1968 73.2962 15.5819C73.0636 14.9584 72.7021 14.4638 72.2117 14.0981C71.7295 13.7242 71.1101 13.5371 70.3538 13.5371C69.6474 13.5371 69.0739 13.7074 68.6336 14.0482C68.2014 14.389 67.8853 14.8669 67.6859 15.4821Z" fill="white"></path><path d="M59.0323 16.4045V24.3588H62.4232V15.507C62.4232 14.0358 62.0284 12.8472 61.2388 11.9413C60.4575 11.027 59.2981 10.5698 57.7606 10.5698C56.8629 10.5698 56.0441 10.7693 55.3045 11.1683C54.6272 11.53 54.0746 12.0271 53.6469 12.6597C53.3278 12.0856 52.887 11.6134 52.3247 11.2431C51.6516 10.7942 50.7871 10.5698 49.7317 10.5698C48.809 10.5698 47.9737 10.7735 47.2257 11.1808C46.6604 11.4919 46.1825 11.8881 45.7918 12.3693V10.894H42.7998V24.3588H46.2157V16.2051C46.2157 15.4321 46.4278 14.8046 46.8517 14.3226C47.2839 13.8321 47.8531 13.5869 48.5595 13.5869C49.2994 13.5869 49.8769 13.8363 50.2925 14.335C50.7165 14.8254 50.9285 15.5153 50.9285 16.4045V24.3588H54.3195V16.2051C54.3195 15.6897 54.4151 15.2367 54.6064 14.8462C54.8058 14.4472 55.0799 14.1397 55.4292 13.9236C55.7783 13.6991 56.1897 13.5869 56.6635 13.5869C57.4032 13.5869 57.9807 13.8363 58.3963 14.335C58.8202 14.8254 59.0323 15.5153 59.0323 16.4045Z" fill="white"></path><path d="M30.651 24.2212C31.3159 24.5786 32.1761 24.7574 33.2319 24.7574C34.5532 24.7574 35.6464 24.4708 36.5108 23.8971C36.921 23.6277 37.2826 23.3185 37.5954 22.97V24.3584H40.5876V10.8937H37.1715V17.7257C37.1715 18.5569 37.0758 19.23 36.8848 19.7454C36.7018 20.2525 36.4651 20.639 36.174 20.9048C35.8831 21.1627 35.5715 21.3371 35.2391 21.4286C34.9067 21.5201 34.5948 21.5658 34.304 21.5658C33.5809 21.5658 33.0198 21.4036 32.6208 21.0795C32.2302 20.7554 31.9477 20.3524 31.773 19.8702C31.5986 19.3881 31.4946 18.9101 31.4614 18.4363C31.4281 17.9545 31.4115 17.5596 31.4115 17.2519V10.8937H27.9707V18.4488C27.9707 18.6733 27.987 19.0307 28.0202 19.5211C28.0536 20.0116 28.1492 20.5558 28.3072 21.1544C28.4649 21.7443 28.727 22.3138 29.0927 22.8625C29.4666 23.4108 29.9862 23.8639 30.651 24.2212Z" fill="white"></path><path d="M78.7324 10.894V24.3588H82.1482V17.4768C82.1482 16.9615 82.219 16.5001 82.3604 16.0928C82.5018 15.6773 82.7094 15.3198 82.9836 15.0207C83.2581 14.7132 83.5946 14.4679 83.9936 14.2851C84.3925 14.094 84.8372 13.9817 85.3277 13.9485C85.8261 13.9069 86.2626 13.9443 86.6365 14.0607V10.894C86.229 10.8442 85.822 10.8358 85.4148 10.8691C85.0075 10.894 84.6126 10.9647 84.2303 11.081C83.848 11.1891 83.4948 11.3429 83.1707 11.5423C82.7469 11.7917 82.3894 12.1075 82.0987 12.4898C81.9609 12.6708 81.836 12.8611 81.7244 13.0607V10.894H78.7324Z" fill="white"></path><path fill-rule="evenodd" clip-rule="evenodd" d="M93.7768 24.733C92.3976 24.733 91.1795 24.4381 90.1242 23.8478C89.0767 23.2496 88.254 22.4309 87.6561 21.3918C87.0651 20.3446 86.7705 19.1478 86.7705 17.8012C86.7705 16.3302 87.0617 15.0501 87.6432 13.9613C88.2247 12.8724 89.0267 12.0289 90.0493 11.4304C91.0718 10.8237 92.2477 10.5203 93.5778 10.5203C94.9907 10.5203 96.1915 10.8527 97.1805 11.5177C98.1695 12.1826 98.9009 13.1176 99.3747 14.3228C99.8485 15.5282 100.015 16.9451 99.8735 18.5741H90.4188C90.5248 19.3825 90.7763 20.039 91.1718 20.544C91.7197 21.2257 92.5217 21.5665 93.5778 21.5665C94.2429 21.5665 94.8115 21.4209 95.2853 21.13C95.7591 20.8392 96.1209 20.4195 96.3699 19.8708L99.7615 20.8434C99.2541 22.0735 98.452 23.0291 97.3554 23.7106C96.2665 24.3923 95.0742 24.733 93.7768 24.733ZM95.859 14.3727C96.1493 14.7664 96.3432 15.3276 96.4431 16.0557H90.5084C90.6402 15.4339 90.8616 14.9227 91.1718 14.5223C91.7197 13.8158 92.5716 13.4626 93.7269 13.4626C94.7167 13.4626 95.4274 13.7659 95.859 14.3727Z" fill="white"></path><path d="M107.821 24.3585V1.18787H111.213V24.3585H107.821Z" fill="white"></path><path fill-rule="evenodd" clip-rule="evenodd" d="M114.988 24.1844C115.662 24.5501 116.48 24.733 117.444 24.733C118.608 24.733 119.569 24.5334 120.325 24.1345C120.928 23.8133 121.497 23.3375 122.033 22.7063V24.3591H125V16.1306C125 15.5157 124.975 14.9586 124.925 14.46C124.875 13.9613 124.717 13.4626 124.452 12.9639C123.978 12.0663 123.28 11.4345 122.356 11.0688C121.434 10.7032 120.378 10.5203 119.191 10.5203C117.569 10.5203 116.289 10.8694 115.35 11.5676C114.411 12.2657 113.771 13.1717 113.43 14.2854L116.498 15.2578C116.713 14.6428 117.091 14.2148 117.632 13.9737C118.172 13.7327 118.692 13.6122 119.191 13.6122C120.088 13.6122 120.727 13.7992 121.11 14.1732C121.411 14.4669 121.593 14.8912 121.657 15.4464C121.083 15.5335 120.539 15.616 120.025 15.6942C119.153 15.8189 118.371 15.952 117.682 16.0931C116.992 16.2346 116.398 16.3967 115.899 16.5794C115.176 16.8453 114.598 17.178 114.166 17.5769C113.742 17.9676 113.434 18.4203 113.243 18.9357C113.052 19.451 112.956 20.0205 112.956 20.6437C112.956 21.3918 113.127 22.0774 113.468 22.7009C113.817 23.3158 114.324 23.8104 114.988 24.1844ZM119.739 21.7408C119.315 21.957 118.792 22.0652 118.168 22.0652C117.777 22.0652 117.441 22.0069 117.158 21.8905C116.876 21.7741 116.655 21.608 116.498 21.3918C116.348 21.1675 116.273 20.9013 116.273 20.5939C116.273 20.3696 116.318 20.1658 116.41 19.9831C116.51 19.8001 116.66 19.6341 116.859 19.4844C117.066 19.3263 117.337 19.181 117.669 19.048C117.96 18.9398 118.296 18.84 118.679 18.7488C119.061 18.6574 119.564 18.5575 120.187 18.4494C120.588 18.3748 121.068 18.2896 121.626 18.1942C121.618 18.4313 121.604 18.6992 121.584 18.9981C121.559 19.4801 121.459 19.9041 121.285 20.2698C121.193 20.4608 121.019 20.6978 120.761 20.9803C120.512 21.2628 120.171 21.5165 119.739 21.7408Z" fill="white"></path><path fill-rule="evenodd" clip-rule="evenodd" d="M9.25573 10.9911H0.046875V15.0015C0.046875 20.9895 4.90128 25.8441 10.8895 25.8441C16.8777 25.8441 21.7323 20.9895 21.7323 15.0015V10.9911H12.2262V4.60441C12.2262 2.06147 10.1648 0 7.62186 0C5.07893 0 3.01746 2.06147 3.01746 4.60441H5.98804C5.98804 3.70206 6.71955 2.97059 7.62186 2.97059C8.52421 2.97059 9.25573 3.70206 9.25573 4.60441V10.9911ZM9.25573 13.9617V19.6058H12.2262V13.9617H18.7617V15.0015C18.7617 19.3492 15.2371 22.8735 10.8895 22.8735C6.54191 22.8735 3.01746 19.3492 3.01746 15.0015V13.9617H9.25573Z" fill="white"></path></svg>