<!DOCTYPE svg PUBLIC "-//W3C//DTD SVG 1.1//EN" "http://www.w3.org/Graphics/SVG/1.1/DTD/svg11.dtd">
<!-- Uploaded to: SVG Repo, www.svgrepo.com, Transformed by: SVG Repo Mixer Tools -->
<svg fill="#46390c" width="64px" height="64px" viewBox="0 0 32 32" version="1.1" xmlns="http://www.w3.org/2000/svg" stroke="#46390c">
<g id="SVGRepo_bgCarrier" stroke-width="0"/>
<g id="SVGRepo_tracerCarrier" stroke-linecap="round" stroke-linejoin="round"/>
<g id="SVGRepo_iconCarrier"> <title>letsencrypt</title> <path d="M15.986 21.652c0.004-0 0.009-0 0.014-0 0.883 0 1.599 0.716 1.599 1.599 0 0.594-0.323 1.112-0.804 1.387l-0.008 0.004v1.556c-0.003 0.432-0.354 0.781-0.787 0.781s-0.784-0.349-0.787-0.781v-1.556c-0.488-0.28-0.812-0.798-0.812-1.391 0-0.878 0.708-1.591 1.584-1.598h0.001zM2.915 13.187c-0.573 0.044-1.021 0.52-1.021 1.1s0.448 1.056 1.017 1.1l0.004 0h3.747c0.573-0.044 1.021-0.52 1.021-1.1s-0.448-1.056-1.017-1.1l-0.004-0zM25.214 13.184c-0.608 0.002-1.1 0.495-1.1 1.103 0 0.609 0.494 1.103 1.103 1.103 0.030 0 0.059-0.001 0.088-0.003l-0.004 0h3.782c0.573-0.044 1.021-0.52 1.021-1.1s-0.448-1.056-1.017-1.1l-0.004-0h-3.782q-0.044-0.003-0.088-0.003zM15.991 12.555c0.003 0 0.006 0 0.009 0 1.485 0 2.689 1.204 2.689 2.689 0 0 0 0 0 0v0 1.859h-5.379v-1.859c0 0 0-0 0-0 0-1.482 1.199-2.684 2.68-2.689h0.001zM15.975 8.939c-3.472 0.014-6.281 2.831-6.281 6.305v0 1.859h-1.458c-0.665 0.002-1.203 0.54-1.206 1.205v11.483c0.002 0.665 0.541 1.203 1.205 1.205h15.528c0.665-0.002 1.203-0.54 1.205-1.205v-11.485c-0.003-0.664-0.541-1.2-1.205-1.203h-1.46v-1.859c-0-3.482-2.823-6.305-6.305-6.305-0.008 0-0.017 0-0.025 0h0.001zM6.403 4.906c-0 0-0 0-0 0-0.609 0-1.103 0.494-1.103 1.103 0 0.313 0.13 0.596 0.34 0.797l0 0 2.962 2.437c0.188 0.156 0.431 0.25 0.696 0.25 0.002 0 0.003 0 0.004 0h-0v-0.002c0 0 0 0 0 0 0.608 0 1.1-0.493 1.1-1.1 0-0.341-0.155-0.646-0.399-0.848l-0.002-0.001-2.964-2.435c-0.177-0.126-0.397-0.201-0.635-0.201h-0zM25.617 4.889c-0.246 0.001-0.472 0.083-0.654 0.22l0.003-0.002-2.967 2.434c-0.247 0.203-0.402 0.509-0.402 0.851 0 0.608 0.493 1.101 1.101 1.101 0.266 0 0.51-0.094 0.701-0.252l-0.002 0.002 2.963-2.438c0.223-0.202 0.363-0.493 0.363-0.817 0-0.608-0.493-1.1-1.1-1.1-0.002 0-0.004 0-0.006 0h0zM15.989 1.004c-0.576 0.006-1.046 0.452-1.089 1.017l-0 0.004v3.775c0.004 0.605 0.495 1.094 1.1 1.094 0.604 0 1.095-0.487 1.1-1.090v-3.779c-0.044-0.573-0.52-1.021-1.1-1.021-0.004 0-0.007 0-0.011 0h0.001z"/> </g>
</svg>