<svg xmlns="http://www.w3.org/2000/svg" width="130" height="24" viewBox="0 0 130 24" fill="none"><path d="M-0.000976562 15.7671L7.78037 12.3903L12.2591 14.9229L13.1639 23.2319L7.64466 23.1874L8.45892 17.4111L7.50889 16.8779L2.84914 20.4327L-0.000976562 15.7671Z" fill="white"></path><path d="M13.1641 14.2436L19.827 19.3602L22.4569 14.428L17.109 12.1693V11.063L22.4569 8.75822L19.827 3.87207L13.1641 8.98874V14.2436Z" fill="white"></path><path d="M12.2591 8.30897L13.1639 0L7.64466 0.0888403L8.45892 5.86517L7.50889 6.39837L2.80391 2.8437L-0.000976562 7.46477L7.78037 10.8417L12.2591 8.30897Z" fill="white"></path><path d="M47.0572 10.3785V20.0498H50.6557V7.72449H45.415V10.3785H47.0572Z" fill="white"></path><path d="M46.9449 5.99324C47.2748 6.33808 47.7771 6.51047 48.4517 6.51047C49.1268 6.51047 49.6212 6.33808 49.936 5.99324C50.2662 5.63322 50.4308 5.18337 50.4308 4.64374C50.4308 4.08885 50.2662 3.63901 49.936 3.29421C49.6212 2.9344 49.1268 2.75439 48.4517 2.75439C47.7771 2.75439 47.2748 2.9344 46.9449 3.29421C46.6302 3.63901 46.4727 4.08885 46.4727 4.64374C46.4727 5.18337 46.6302 5.63322 46.9449 5.99324Z" fill="white"></path><path d="M34.5298 19.7802C35.5493 20.245 36.8013 20.4775 38.2855 20.4775C39.6802 20.4775 40.8794 20.2598 41.8844 19.8251C42.889 19.3905 43.661 18.783 44.2008 18.0032C44.7559 17.2086 45.033 16.2864 45.033 15.2368C45.033 14.2172 44.7711 13.355 44.2462 12.6502C43.736 11.9305 43.0242 11.3682 42.1092 10.9635C41.1945 10.5436 40.1375 10.2811 38.9379 10.1763L37.6784 10.0638C36.9287 10.0037 36.3889 9.80139 36.059 9.45647C35.7291 9.11163 35.5641 8.70669 35.5641 8.24204C35.5641 7.88202 35.6544 7.5522 35.8339 7.25235C36.0141 6.9374 36.2838 6.69006 36.6438 6.51001C37.0186 6.33019 37.476 6.2402 38.0158 6.2402C38.5853 6.2402 39.0579 6.34506 39.4328 6.55516C39.5152 6.59945 39.5936 6.64692 39.6672 6.69734L39.685 6.7098C39.7125 6.72878 39.7396 6.74853 39.766 6.76843C39.9937 6.94251 40.175 7.14874 40.3099 7.38726C40.5046 7.71715 40.6026 8.08445 40.6026 8.48939H44.2008C44.2008 7.40971 43.9533 6.47253 43.4589 5.67791C42.964 4.86824 42.2518 4.24599 41.3223 3.81102C40.4073 3.36119 39.3054 3.13623 38.0158 3.13623C36.7861 3.13623 35.7216 3.34633 34.8219 3.7661C33.9224 4.17102 33.2177 4.75578 32.7079 5.52039C32.2127 6.28512 31.9652 7.19241 31.9652 8.24204C31.9652 9.69638 32.453 10.8659 33.4275 11.7507C34.4021 12.6353 35.7068 13.1451 37.3411 13.28L38.5783 13.3925C39.5824 13.4825 40.3099 13.685 40.7599 13.9997C41.2093 14.2996 41.4345 14.712 41.4345 15.2368C41.4345 15.478 41.3951 15.7041 41.316 15.9155C41.2573 16.0723 41.177 16.221 41.0749 16.3615C40.8345 16.6762 40.4823 16.9236 40.0175 17.1038C39.5528 17.2836 38.9754 17.3735 38.2855 17.3735C37.5209 17.3735 36.8987 17.2688 36.419 17.0585C35.939 16.8337 35.5794 16.5414 35.339 16.1816C35.1143 15.8215 35.0021 15.4318 35.0021 15.0118H31.4258C31.4258 16.0765 31.6881 17.0209 32.2127 17.8457C32.7376 18.6556 33.51 19.3002 34.5298 19.7802Z" fill="white"></path><path d="M58.6844 20.2078C57.4399 20.2078 56.4353 20.0576 55.6707 19.7579C54.9057 19.4428 54.3436 18.9257 53.9836 18.206C53.6389 17.4712 53.4665 16.4818 53.4665 15.2371V10.3564H51.5996V7.7249H53.4665V4.39624H56.8176V7.7249H60.4165V10.3564H56.8176V15.3722C56.8176 15.9569 56.9676 16.4068 57.2675 16.7214C57.5821 17.0213 58.0246 17.1713 58.5945 17.1713H60.4165V20.2078H58.6844Z" fill="white"></path><path fill-rule="evenodd" clip-rule="evenodd" d="M64.7491 19.9374C65.5587 20.297 66.4886 20.4772 67.5381 20.4772C68.5724 20.4772 69.4875 20.297 70.2821 19.9374C71.0768 19.5775 71.7366 19.0752 72.2612 18.4306C72.7862 17.7856 73.1387 17.0507 73.3182 16.2261H70.0121C69.8623 16.6009 69.5773 16.9159 69.1575 17.1708C68.7377 17.4256 68.1976 17.553 67.5381 17.553C67.1294 17.553 66.7642 17.5048 66.4425 17.4081C66.1977 17.3345 65.9781 17.2332 65.7838 17.1035C65.3339 16.8033 65.004 16.3835 64.794 15.8439C64.7357 15.6901 64.6859 15.5293 64.644 15.3618C64.6012 15.1921 64.5667 15.0155 64.5407 14.8317H73.5433V13.6172C73.5433 12.4925 73.3033 11.458 72.8237 10.5133C72.3437 9.55354 71.6464 8.78138 70.732 8.19662C69.8323 7.59685 68.7225 7.297 67.4029 7.297C66.3983 7.297 65.4985 7.47697 64.7038 7.83676C63.9247 8.1816 63.2723 8.65391 62.7474 9.25369C62.2228 9.85347 61.8179 10.5358 61.5326 11.3006C61.2628 12.0501 61.1279 12.8373 61.1279 13.662V14.1119C61.1279 14.9067 61.2628 15.6863 61.5326 16.4511C61.8179 17.2008 62.2228 17.883 62.7474 18.4978C63.2872 19.0974 63.954 19.5775 64.7491 19.9374ZM64.6028 12.6077C64.6128 12.5601 64.6232 12.5132 64.6347 12.467C64.6659 12.3399 64.702 12.218 64.7428 12.1016C64.7659 12.0353 64.7903 11.9706 64.8167 11.9078C65.0415 11.3529 65.3714 10.9331 65.8061 10.6482C65.9688 10.5418 66.1449 10.4553 66.334 10.3886C66.652 10.2768 67.0087 10.2208 67.4029 10.2208C68.0181 10.2208 68.5275 10.3634 68.9324 10.6482C69.3522 10.9181 69.6672 11.3154 69.8772 11.8403C69.8943 11.8826 69.9102 11.9257 69.9259 11.9694C69.9507 12.0389 69.9737 12.1102 69.9953 12.1834C70.0269 12.2922 70.0547 12.4049 70.0793 12.5213C70.0971 12.6072 70.1124 12.695 70.1261 12.785H64.5682C64.5786 12.7249 64.5901 12.6658 64.6028 12.6077Z" fill="white"></path><path d="M75.0283 20.05V7.72473H77.8849V10.8291C77.9237 10.6446 77.9678 10.4674 78.0174 10.2975C78.0592 10.1545 78.1049 10.0165 78.1544 9.88393C78.4696 9.04416 78.942 8.4145 79.5716 7.99453C80.2012 7.55978 80.9733 7.34241 81.8886 7.34241H82.0458C82.9751 7.34241 83.7472 7.55978 84.3621 7.99453C84.9917 8.4145 85.4648 9.04416 85.7792 9.88393L85.804 9.94728L85.8257 10.0053C85.8397 9.96431 85.8544 9.92397 85.8691 9.88393C86.199 9.04416 86.6791 8.4145 87.3087 7.99453C87.9383 7.55978 88.7111 7.34241 89.6257 7.34241H89.7829C90.7122 7.34241 91.492 7.55978 92.1216 7.99453C92.7667 8.4145 93.2546 9.04416 93.5837 9.88393C93.9136 10.7237 94.0793 11.7732 94.0793 13.0328V20.05H90.4799V12.8303C90.4799 12.1556 90.3002 11.6083 89.9401 11.1886C89.5955 10.7686 89.1007 10.5587 88.4564 10.5587C87.8113 10.5587 87.3017 10.7762 86.9269 11.211C86.5513 11.6308 86.3639 12.1931 86.3639 12.8979V20.05H82.7428V12.8303C82.7428 12.1556 82.5631 11.6083 82.203 11.1886C81.8584 10.7686 81.3706 10.5587 80.7417 10.5587C80.0812 10.5587 79.5639 10.7762 79.1891 11.211C78.8142 11.6308 78.6268 12.1931 78.6268 12.8979V20.05H75.0283Z" fill="white"></path><path fill-rule="evenodd" clip-rule="evenodd" d="M103.692 17.6757V20.0504H106.548V12.4933C106.548 11.3537 106.323 10.4242 105.873 9.70428C105.423 8.96961 104.764 8.42233 103.894 8.06247C103.04 7.70268 101.983 7.52271 100.723 7.52271C100.45 7.52271 100.165 7.52557 99.8679 7.53153C99.6928 7.53517 99.5124 7.53966 99.3281 7.54509C98.8333 7.56019 98.3539 7.58257 97.8892 7.61269L97.5338 7.63654C97.3518 7.64924 97.1807 7.66171 97.0188 7.67441C96.898 7.68386 96.7834 7.69323 96.675 7.70268V10.739C97.1396 10.709 97.6569 10.679 98.2261 10.6491C98.3856 10.6408 98.5436 10.633 98.7008 10.6257C98.927 10.6152 99.1508 10.6062 99.3715 10.5982C99.5465 10.5918 99.7192 10.5863 99.8911 10.5815C100.43 10.5665 100.865 10.5591 101.195 10.5591C101.855 10.5591 102.334 10.7164 102.635 11.0314C102.935 11.3463 103.085 11.8186 103.085 12.4484V12.4933H100.858C99.7633 12.4933 98.7961 12.6358 97.9566 12.9207C97.1164 13.1905 96.4643 13.6179 95.9997 14.2027C95.5351 14.7725 95.3027 15.5073 95.3027 16.4069C95.3027 17.2317 95.4901 17.9439 95.865 18.5435C96.2398 19.1283 96.7571 19.5782 97.4169 19.8929C98.0914 20.2079 98.8712 20.3655 99.7556 20.3655C100.611 20.3655 101.33 20.2079 101.915 19.8929C102.515 19.5782 102.979 19.1283 103.309 18.5435C103.367 18.4451 103.422 18.3429 103.472 18.2367C103.544 18.0866 103.607 17.9283 103.663 17.763L103.692 17.6757ZM103.085 15.4848V14.4951H100.835C100.205 14.4951 99.7184 14.6525 99.3738 14.9675C99.0439 15.2673 98.8782 15.6797 98.8782 16.2045C98.8782 16.4515 98.92 16.676 99.0021 16.8784C99.0849 17.0813 99.2081 17.2614 99.3738 17.419C99.7184 17.7192 100.205 17.8688 100.835 17.8688C100.955 17.8688 101.071 17.863 101.183 17.851C101.274 17.8417 101.363 17.828 101.449 17.8105C101.614 17.7768 101.77 17.7288 101.915 17.6664C102.245 17.5166 102.515 17.2692 102.725 16.9241C102.935 16.5793 103.055 16.0995 103.085 15.4848Z" fill="white"></path><path d="M108.703 20.0498V7.7245H111.559V11.7928C111.696 10.6315 112.042 9.69497 112.594 8.98399C113.344 8.03945 114.423 7.56714 115.833 7.56714H116.305V10.6709H115.406C114.416 10.6709 113.651 10.9408 113.111 11.4806C112.571 12.0054 112.301 12.7701 112.301 13.7746V20.0498H108.703Z" fill="white"></path><path d="M120.868 14.2925H122.06L125.951 20.0502H130L125.066 12.979L129.123 7.72494H125.344L120.868 13.5855V3.63147H117.27V20.0502H120.868V14.2925Z" fill="white"></path></svg>