<svg xmlns="http://www.w3.org/2000/svg" width="72" height="26" viewBox="0 0 72 26" fill="none"><path d="M72 6.15331H68.2546L66.0872 15.5492L65.783 16.8385C65.5738 16.8971 65.3647 16.9557 65.1555 16.9948C64.7753 17.0729 64.376 17.112 63.9578 17.112C63.4825 17.112 63.1022 17.0338 62.817 16.8971C62.5508 16.7603 62.3417 16.565 62.2276 16.2915C62.1136 16.0376 62.0755 15.725 62.0945 15.3734C62.1136 15.0218 62.1896 14.6311 62.2847 14.2404L63.4254 9.35691L64.1669 6.11424H60.3454L58.6153 13.6154C58.4061 14.5139 58.2921 15.3734 58.254 16.1939C58.216 17.0143 58.3491 17.7175 58.6153 18.3621C58.8815 18.9872 59.3568 19.4756 60.0032 19.8467C60.6496 20.2179 61.5812 20.3937 62.76 20.3937C63.5775 20.3937 64.3 20.3156 64.9084 20.1788C64.9274 20.1788 64.9654 20.1593 64.9844 20.1593C64.8133 20.9407 64.4711 21.5657 63.9387 22.0541C63.3874 22.5425 62.5889 22.7964 61.5242 22.7964C61.0679 22.7964 60.6496 22.7769 60.2694 22.7183L59.5279 25.9023C60.0222 25.9609 60.5736 26 61.1819 26C62.3227 26 63.3113 25.8633 64.1669 25.6093C65.0225 25.3358 65.7449 24.9452 66.3723 24.3982C66.9807 23.8512 67.4941 23.1675 67.9123 22.3666C68.3306 21.5462 68.6538 20.589 68.901 19.4561L71.4867 8.28253L72 6.15331Z" fill="white"></path><path d="M56.3147 14.1817C56.0865 15.1584 56.0105 16.1547 56.1056 17.1314C56.2006 18.1276 56.5809 19.6318 56.9421 20.3936H53.3297C52.8925 19.6318 52.9115 19.2606 52.8164 19.0262C52.3411 19.4169 51.8278 19.749 51.2574 20.0029C50.687 20.2569 50.0596 20.3936 49.3371 20.3936C48.5006 20.3936 47.7781 20.2373 47.1887 19.9443C46.5993 19.6513 46.105 19.2411 45.7248 18.7332C45.3445 18.2253 45.0784 17.6393 44.9072 16.9556C44.7361 16.2719 44.6601 15.5491 44.6601 14.7678C44.6601 13.5762 44.8692 12.4627 45.2685 11.4079C45.6868 10.353 46.2571 9.43494 46.9796 8.65357C47.7021 7.8722 49.4702 6.13366 52.3601 6.13366C53.6149 6.13366 55.288 6.13366 58.1589 6.13366L56.3147 14.1817ZM53.672 9.39587C51.9228 9.39587 51.5996 9.39587 50.8771 9.76702C50.3638 10.0405 49.9455 10.4507 49.5843 10.9195C49.2231 11.3884 48.9189 11.9353 48.7097 12.5604C48.5006 13.1855 48.3865 13.8301 48.3865 14.4943C48.3865 15.3147 48.5196 15.9789 48.7858 16.4672C49.052 16.9556 49.5463 17.19 50.2687 17.19C50.649 17.19 51.0102 17.1119 51.3144 16.9556C51.6186 16.7993 51.9608 16.5454 52.3031 16.1742C52.3411 15.7445 52.3981 15.2952 52.4742 14.8264C52.5502 14.3575 52.6453 13.9083 52.7213 13.5176L53.672 9.39587Z" fill="white"></path><path d="M43.6335 11.7986C43.6335 13.0683 43.4244 14.2208 43.0251 15.2757C42.6258 16.3305 42.0555 17.2291 41.333 17.9909C40.6105 18.7528 39.755 19.3388 38.7473 19.7685C37.7396 20.1983 36.6559 20.4132 35.4772 20.4132C34.9068 20.4132 34.3364 20.3546 33.747 20.2569L32.6063 24.9646H28.8609L33.2147 6.17277C33.8421 6.17277 37.1883 6.17277 38.215 6.17277C39.1656 6.17277 39.9831 6.32905 40.6485 6.62206C41.333 6.91507 41.8843 7.32529 42.3406 7.83318C42.7779 8.34107 43.1011 8.94662 43.3103 9.63032C43.5384 10.2945 43.6335 11.0172 43.6335 11.7986ZM34.4505 17.1314C34.7357 17.2096 35.0969 17.2291 35.5152 17.2291C36.1806 17.2291 36.77 17.1119 37.3214 16.858C37.8537 16.604 38.329 16.2524 38.7093 15.8031C39.0895 15.3538 39.3747 14.8069 39.6029 14.1818C39.812 13.5567 39.9261 12.8535 39.9261 12.0916C39.9261 11.3493 39.774 10.7047 39.4508 10.1968C39.1276 9.66939 38.5762 9.39591 37.7777 9.39591C37.2263 9.39591 36.2947 9.39591 36.2947 9.39591L34.4505 17.1314Z" fill="white"></path><path d="M26.5793 17.1315C26.104 17.1315 25.7238 17.0533 25.4386 16.9166C25.1724 16.7798 24.9633 16.5845 24.8492 16.311C24.7351 16.0571 24.6971 15.7445 24.7161 15.3929C24.7351 15.0413 24.8112 14.6506 24.9063 14.2599L26.047 9.3764H30.3058L31.0853 6.13373H26.8075L27.7961 2.03156L23.8035 2.67619L21.2749 13.6544C21.0657 14.5529 20.9517 15.4125 20.9137 16.2329C20.8756 17.0533 21.0087 17.7565 21.2749 18.4012C21.5411 19.0263 22.0164 19.5146 22.6628 19.8858C23.3092 20.2569 24.2408 20.4327 25.4196 20.4327C26.2371 20.4327 26.9596 20.3546 27.568 20.2179C27.625 20.1983 27.7201 20.1788 27.7771 20.1593L28.5566 16.8189C28.2905 16.9166 28.0243 16.9752 27.7771 17.0143C27.3969 17.0924 26.9976 17.1315 26.5793 17.1315Z" fill="white"></path><path d="M17.0541 6.15322L13.7459 20.4132H17.4914L20.7805 6.15322H17.0541Z" fill="white"></path><path d="M21.1798 4.5124L21.7501 2.03156H18.0047L17.4343 4.5124H21.1798Z" fill="white"></path><path d="M8.76471 6.17279C9.56323 6.17279 10.2667 6.32906 10.8561 6.62208C11.4455 6.91509 11.9208 7.30577 12.32 7.81366C12.7003 8.32155 12.9855 8.90757 13.1756 9.57173C13.3657 10.2359 13.4608 10.9587 13.4608 11.74C13.4608 12.9316 13.2516 14.0451 12.8144 15.1194C12.3771 16.1743 11.8067 17.1119 11.0652 17.8933C10.3237 18.6746 9.44916 19.2997 8.4415 19.749C7.43385 20.1983 6.35014 20.4327 5.17137 20.4327C5.01927 20.4327 4.7531 20.4327 4.37285 20.4132C3.9926 20.4132 3.55532 20.3741 3.08001 20.296C2.58569 20.2178 2.07235 20.1202 1.54 19.9834C0.988644 19.8467 0.47531 19.6514 0 19.4169L4.35384 0.625094L8.25138 0L6.71138 6.66114C7.0536 6.50487 7.3578 6.38767 7.70002 6.30953C8.02323 6.21186 8.38447 6.17279 8.76471 6.17279ZM5.49458 17.2291C6.08397 17.2291 6.63532 17.0924 7.14866 16.7798C7.66199 16.4868 8.11829 16.0961 8.49854 15.6078C8.87879 15.1194 9.18299 14.5529 9.39212 13.9474C9.60126 13.3223 9.71533 12.6777 9.71533 12.0135C9.71533 11.1931 9.58225 10.5484 9.31607 10.0796C9.0499 9.6108 8.49854 9.39592 7.77607 9.39592C7.54792 9.39592 7.30076 9.41546 6.92051 9.51313C6.54026 9.59127 6.21705 9.78661 5.91285 10.0601L4.27779 17.151C4.77211 17.2291 5.30446 17.2291 5.49458 17.2291Z" fill="white"></path></svg>