<svg xmlns="http://www.w3.org/2000/svg" width="125" height="24" viewBox="0 0 125 24" fill="none"><g clip-path="url(#clip0_2476_1655)"><path d="M37.4299 20.4C38.8616 20.4 40.1124 20.2205 41.1822 19.8617C42.2678 19.4879 43.1096 18.9196 43.7074 18.157C44.3053 17.3944 44.6042 16.4374 44.6042 15.286C44.6042 14.1196 44.3446 13.2 43.8254 12.5271C43.3062 11.8542 42.5982 11.3458 41.7014 11.0018C40.8046 10.643 39.7977 10.3738 38.6806 10.1944C37.8625 10.0598 37.1624 9.93271 36.5803 9.81307C35.9981 9.67849 35.5498 9.48415 35.2351 9.22993C34.9361 8.97571 34.7867 8.60935 34.7867 8.13085C34.7867 7.59253 35.0148 7.17385 35.4711 6.87475C35.9431 6.56077 36.5882 6.40375 37.4063 6.40375C38.3345 6.40375 39.0504 6.59065 39.5538 6.96451C40.0573 7.32337 40.3169 7.83925 40.3327 8.51215H44.2266C44.2109 6.95701 43.613 5.75328 42.433 4.90094C41.2688 4.0486 39.5931 3.62244 37.4063 3.62244C36.069 3.62244 34.889 3.80935 33.8663 4.18318C32.8594 4.55701 32.0727 5.11029 31.5063 5.843C30.9556 6.57571 30.6803 7.48789 30.6803 8.57947C30.6803 9.98503 31.1759 11.0467 32.1671 11.7645C33.174 12.4822 34.5507 13.0056 36.2971 13.3346C37.1152 13.4841 37.8389 13.6336 38.4683 13.7832C39.0976 13.9178 39.5932 14.1196 39.955 14.3888C40.3169 14.6579 40.4978 15.0617 40.4978 15.6C40.4978 16.9009 39.5066 17.5514 37.5243 17.5514C36.5173 17.5514 35.7228 17.357 35.1407 16.9682C34.5585 16.5645 34.2518 15.9364 34.2203 15.0841H30.3027C30.3027 16.6691 30.9085 17.9551 32.1199 18.9421C33.3314 19.914 35.1013 20.4 37.4299 20.4Z" fill="white"></path><path d="M46.7646 20.1758H50.399V8.13088H46.7646V20.1758ZM46.7646 6.60562H50.399V3.82434H46.7646V6.60562Z" fill="white"></path><path d="M57.667 20.1758H61.4666V17.4842H58.493V10.9122H61.6081V8.13089H58.493V4.36267H54.8587V8.13089H52.1211V10.9122H54.8587V17.5066C54.8587 18.2991 55.071 18.9421 55.4958 19.4356C55.9364 19.9291 56.6601 20.1758 57.667 20.1758Z" fill="white"></path><path d="M69.0186 20.4001C70.0887 20.4001 71.0407 20.2281 71.874 19.8842C72.708 19.5403 73.369 19.0618 73.8564 18.4487C74.3444 17.8356 74.612 17.1178 74.6588 16.2954H71.237C71.1581 16.744 70.9069 17.1029 70.482 17.372C70.0729 17.6412 69.5458 17.7758 68.9006 17.7758C68.1771 17.7758 67.5792 17.5814 67.107 17.1926C66.6512 16.8038 66.4226 16.2879 66.4226 15.6449V15.0169H74.8008V13.4917C74.8008 12.3701 74.5647 11.3907 74.0925 10.5533C73.6209 9.71592 72.9283 9.06546 72.0161 8.6019C71.119 8.1384 70.0256 7.90662 68.7358 7.90662C67.5552 7.90662 66.5091 8.14584 65.5969 8.62434C64.6998 9.0879 63.9997 9.77574 63.4965 10.6879C62.9929 11.5851 62.7412 12.6842 62.7412 13.9851V14.187C62.7412 15.4281 62.9693 16.5197 63.4258 17.4617C63.8816 18.3889 64.5742 19.1141 65.5022 19.6375C66.4466 20.1458 67.6184 20.4001 69.0186 20.4001ZM66.4226 12.7739C66.4226 12.0262 66.6354 11.458 67.0596 11.0692C67.5003 10.6655 68.0982 10.4636 68.8538 10.4636C69.5615 10.4636 70.136 10.6505 70.5761 11.0243C71.0167 11.3833 71.237 11.9664 71.237 12.7739V12.886H66.4226V12.7739Z" fill="white"></path><path d="M83.7226 20.4002C85.0755 20.4002 86.2554 20.1311 87.2623 19.5927C88.2851 19.0544 88.9694 18.3292 89.316 17.417H89.4574L89.7409 20.1759H92.5963V11.3834H84.3362V13.9853H88.6317C88.5527 15.0619 88.1436 15.8918 87.4044 16.475C86.6803 17.0432 85.6733 17.3273 84.3835 17.3273C83.0931 17.3273 82.0546 16.9909 81.268 16.318C80.4972 15.6451 80.1121 14.6507 80.1121 13.3348V10.7778C80.1121 9.5965 80.4814 8.6395 81.2213 7.90678C81.9606 7.15912 83.0698 6.78526 84.5483 6.78526C85.571 6.78526 86.4366 6.9946 87.1443 7.41328C87.8526 7.81702 88.309 8.42266 88.5136 9.23014H92.4782C92.3678 8.0638 91.9669 7.06192 91.2743 6.2245C90.5824 5.38713 89.6619 4.74414 88.5136 4.29555C87.3804 3.83199 86.0748 3.60022 84.5957 3.60022C82.8968 3.60022 81.4019 3.91424 80.1121 4.54227C78.8375 5.17031 77.8387 6.11986 77.1146 7.3909C76.4069 8.64694 76.0527 10.217 76.0527 12.1011V12.1909C76.0527 14.8974 76.7137 16.946 78.0351 18.3366C79.3564 19.7124 81.2522 20.4002 83.7226 20.4002Z" fill="white"></path><path d="M95.6328 20.1758H99.5034V14.972H103.445C105.647 14.972 107.275 14.4636 108.33 13.4468C109.4 12.415 109.935 11.0617 109.935 9.38698C109.935 7.68226 109.407 6.32902 108.353 5.32714C107.315 4.32527 105.741 3.82434 103.633 3.82434H95.6328V20.1758ZM103.115 6.96454C103.964 6.96454 104.632 7.15144 105.12 7.5253C105.623 7.8991 105.875 8.44492 105.875 9.16264V9.85798C105.875 10.5458 105.632 11.0841 105.144 11.4729C104.672 11.8617 103.995 12.0561 103.115 12.0561H99.5034V6.96454H103.115Z" fill="white"></path><path d="M124.72 6.96466V3.82446H110.584V6.96466H115.729V20.1759H119.576V6.96466H124.72Z" fill="white"></path><mask id="mask0_2476_1655" style="mask-type:luminance" maskUnits="userSpaceOnUse" x="0" y="0" width="26" height="25"><path d="M25.2525 0.00012207H0V24.0001H25.2525V0.00012207Z" fill="white"></path></mask><g mask="url(#mask0_2476_1655)"><path d="M18.3493 4.80627H17.7183V3.496C18.5876 3.20409 19.1092 2.35903 18.9532 1.49535C18.7971 0.631448 18.0092 0.00012207 17.087 0.00012207C16.1649 0.00012207 15.377 0.631448 15.2209 1.49535C15.065 2.35908 15.5866 3.20409 16.4558 3.496V4.80622H8.88241V3.496C9.75191 3.20409 10.2733 2.35903 10.1175 1.49535C9.9617 0.631448 9.17369 0.00012207 8.25147 0.00012207C7.32931 0.00012207 6.54118 0.631448 6.38544 1.49535C6.22945 2.35908 6.75084 3.20409 7.62029 3.496V4.80622H6.9891C5.24722 4.80802 3.83548 6.1497 3.83359 7.80528V18.002C3.83548 19.6579 5.24715 20.9995 6.9891 21.0013H8.88247V23.4004C8.88253 23.5075 8.91277 23.6126 8.96997 23.7048C9.02723 23.797 9.10936 23.873 9.20791 23.9249C9.3064 23.9768 9.4177 24.0027 9.53026 23.9999C9.64282 23.9971 9.75261 23.9656 9.84806 23.9089L14.7438 21.0013H18.3493C20.0915 20.9997 21.5034 19.6579 21.505 18.002V7.80522C21.5034 6.14964 20.0915 4.80779 18.3493 4.80627ZM9.51366 8.40516C10.5589 8.4063 11.4058 9.21132 11.407 10.2046C11.407 10.5358 11.1246 10.8043 10.7758 10.8043C10.4273 10.8043 10.1448 10.5358 10.1448 10.2046C10.1448 9.87342 9.86227 9.60468 9.51366 9.60468C9.16517 9.60468 8.88247 9.8733 8.88247 10.2046C8.88247 10.5358 8.60008 10.8042 8.25147 10.8042C7.90292 10.8042 7.62029 10.5358 7.62029 10.2046C7.62148 9.21126 8.46852 8.4063 9.51366 8.40516ZM17.3693 15.8395C15.9005 16.498 14.2931 16.8296 12.6691 16.8095C11.0453 16.8298 9.43809 16.498 7.96909 15.8395C7.65728 15.6914 7.53114 15.331 7.68689 15.0347C7.84289 14.7383 8.22193 14.6182 8.53373 14.7664C10.8912 15.8863 14.4479 15.8863 16.8049 14.7664C17.1167 14.6182 17.4957 14.7383 17.6517 15.0347C17.8075 15.331 17.6811 15.6914 17.3693 15.8395ZM17.0871 10.8043C16.9198 10.8045 16.7591 10.7413 16.6408 10.6288C16.5224 10.5163 16.4559 10.3636 16.4559 10.2046C16.4559 9.87342 16.1735 9.60474 15.825 9.60474C15.4763 9.60474 15.1937 9.87336 15.1937 10.2046C15.1937 10.5359 14.9113 10.8043 14.5625 10.8043C14.214 10.8043 13.9316 10.5358 13.9316 10.2046C13.9316 9.21066 14.7791 8.40516 15.825 8.40516C16.8705 8.40516 17.7183 9.21066 17.7183 10.2046C17.7183 10.3636 17.652 10.5163 17.5334 10.6288C17.415 10.7413 17.2544 10.8046 17.0871 10.8043ZM23.3984 9.60468H22.7671V15.603H23.3984C24.4435 15.6019 25.2906 14.7968 25.2917 13.8035V11.4041C25.2906 10.4108 24.4435 9.60576 23.3984 9.60468ZM0.046875 11.4041V13.8035C0.0480583 14.7968 0.895102 15.6018 1.94023 15.6029H2.57143V9.60468H1.94023C0.895102 9.60576 0.0480583 10.4108 0.046875 11.4041Z" fill="white"></path></g></g><defs><clipPath id="clip0_2476_1655"><rect width="125" height="24" fill="white"></rect></clipPath></defs></svg>