<!DOCTYPE svg PUBLIC "-//W3C//DTD SVG 1.1//EN" "http://www.w3.org/Graphics/SVG/1.1/DTD/svg11.dtd">
<!-- Uploaded to: SVG Repo, www.svgrepo.com, Transformed by: SVG Repo Mixer Tools -->
<svg width="64px" height="64px" viewBox="0 0 16 16" fill="none" xmlns="http://www.w3.org/2000/svg">
<g id="SVGRepo_bgCarrier" stroke-width="0"/>
<g id="SVGRepo_tracerCarrier" stroke-linecap="round" stroke-linejoin="round"/>
<g id="SVGRepo_iconCarrier"> <path fill-rule="evenodd" clip-rule="evenodd" d="M2 6C2 2.68629 4.68629 0 8 0C11.3137 0 14 2.68629 14 6V16H12L10 14L8 16L6 14L4 16H2V6ZM7 6C7 6.55228 6.55228 7 6 7C5.44772 7 5 6.55228 5 6C5 5.44772 5.44772 5 6 5C6.55228 5 7 5.44772 7 6ZM10 7C10.5523 7 11 6.55228 11 6C11 5.44772 10.5523 5 10 5C9.44772 5 9 5.44772 9 6C9 6.55228 9.44772 7 10 7Z" fill="#000000"/> </g>
</svg>